<?xml version="1.0" encoding="UTF-8"?>
<svg width="121px" height="149px" viewBox="0 0 121 149" version="1.1" xmlns="http://www.w3.org/2000/svg" xmlns:xlink="http://www.w3.org/1999/xlink">
    <!-- Generator: Sketch 47.1 (45422) - http://www.bohemiancoding.com/sketch -->
    <title>billing</title>
    <desc>Created with Sketch.</desc>
    <defs>
        <path d="M1.05245136,0.334319066 C1.01976654,0.334319066 0.987081712,0.336653696 0.953929961,0.341789883 C0.570583658,0.393618677 0.302568093,0.746614786 0.354396887,1.12996109 L2.55175097,17.2743969 C2.59984436,17.6259922 2.90007782,17.8804669 3.24513619,17.8804669 L3.34038911,17.87393 C3.72420233,17.8221012 3.9922179,17.4686381 3.93992218,17.0857588 L1.74210117,0.941322957 C1.69447471,0.591128405 1.39284047,0.334319066 1.05245136,0.334319066 L1.05245136,0.334319066 Z" id="path-1"></path>
    </defs>
    <g id="Page-1" stroke="none" stroke-width="1" fill="none" fill-rule="evenodd">
        <g id="Second" transform="translate(-815.000000, -885.000000)">
            <g id="Features" transform="translate(248.000000, 674.000000)">
                <g id="billing" transform="translate(567.000000, 211.000000)">
                    <g>
                        <g>
                            <path d="M53.8566537,114.826459 L53.7931518,114.825058 C53.0203891,114.790506 52.4217899,114.135875 52.4563424,113.363113 L53.9154864,80.6003113 C53.949572,79.8280156 54.6004669,79.2336187 55.3774319,79.2635019 C56.1501946,79.2980545 56.7483268,79.9522179 56.7142412,80.7254475 L55.2550973,113.488249 C55.2219455,114.239533 54.6014008,114.826459 53.8566537,114.826459" id="Fill-1" fill="#FFD7E9"></path>
                            <path d="M58.7341634,116.098366 C58.6062257,116.098366 58.4759533,116.080623 58.3466148,116.042802 C57.6032685,115.829416 57.1736965,115.053385 57.3875486,114.310039 L66.4496498,82.7920623 C66.663035,82.048249 67.4385992,81.6168093 68.1828794,81.8329961 C68.9262257,82.0463813 69.3557977,82.8224125 69.1419455,83.5662257 L60.0798444,115.084202 C59.9033463,115.69821 59.343035,116.098366 58.7341634,116.098366" id="Fill-2" fill="#FFD7E9"></path>
                            <path d="M37.4189883,77.260856 C37.4189883,77.260856 45.1937743,84.6840467 54.8535409,80.5877043 L50.4074708,69.4505837 L40.7224903,71.5321401 L37.4189883,77.260856" id="Fill-3" fill="#FFD7E9"></path>
                            <path d="M48.8698833,83.2375097 C41.75393,83.2375097 36.7195331,78.530428 36.4515175,78.2740856 C35.9841245,77.8281712 35.8828016,77.1203113 36.2054475,76.5609339 L39.5089494,70.8322179 C39.7069261,70.4894942 40.0407782,70.2457588 40.4278599,70.1631128 L50.1128405,68.0815564 C50.7842802,67.9358755 51.4552529,68.2972763 51.7083268,68.9313619 L56.1548638,80.0684825 C56.4373541,80.7758755 56.1021012,81.5799222 55.4003113,81.8773541 C53.0964981,82.8541634 50.8982101,83.2375097 48.8698833,83.2375097 L48.8698833,83.2375097 Z M39.2185214,76.9442802 C41.2146304,78.4832685 46.5497276,81.8385992 53.021323,79.7752529 L49.5450584,71.0689494 L41.6250584,72.7713619 L39.2185214,76.9442802 L39.2185214,76.9442802 Z" id="Fill-4" fill="#FF7BAC"></path>
                            <path d="M84.8806226,85.0291051 C84.8806226,85.0291051 76.3788327,91.4442023 67.2952529,82.6239689 L75.0602335,73.4857588 L83.5760311,78.5463035 L84.8806226,85.0291051" id="Fill-5" fill="#FFD7E9"></path>
                            <path d="M77.5171984,88.6603891 C74.2454475,88.6603891 70.3120623,87.5056809 66.3193774,83.6292607 C65.7898833,83.1151751 65.7501946,82.2789105 66.2278599,81.7171984 L73.9928405,72.5789883 C74.4354864,72.0578988 75.1886381,71.9322957 75.7755642,72.2815564 L84.2913619,77.3421012 C84.6322179,77.5442802 84.871284,77.8814008 84.9497276,78.2698833 L86.2538521,84.7526848 C86.3603113,85.2807782 86.1543969,85.8228794 85.724358,86.1469261 C85.6683268,86.1894163 82.301323,88.6603891 77.5171984,88.6603891 L77.5171984,88.6603891 Z M69.2385992,82.5002335 C75.5831907,87.8983658 81.3357198,85.4955642 83.3182879,84.3670039 L82.3256031,79.4325292 L75.3614008,75.2941634 L69.2385992,82.5002335 L69.2385992,82.5002335 Z" id="Fill-6" fill="#FF7BAC"></path>
                            <path d="M61.7948638,55.5235798 C62.1231128,53.5195331 64.0136965,52.1607782 66.0177432,52.4885603 C68.0217899,52.8168093 69.3805447,54.707393 69.0522957,56.7114397" id="Fill-7" fill="#FFB0D0"></path>
                            <path d="M69.0546304,58.1122179 C68.9789883,58.1122179 68.9028794,58.1061479 68.8263035,58.0940078 C68.0628794,57.9688716 67.5450584,57.2484047 67.6701946,56.4854475 C67.8728405,55.2466926 67.0300389,54.0742412 65.7908171,53.8711284 C65.1931518,53.772607 64.5889494,53.9140856 64.0949416,54.2694163 C63.6018677,54.6238132 63.2759533,55.149572 63.1778988,55.7500389 C63.0522957,56.5129961 62.3290272,57.0275486 61.5688716,56.9061479 C60.8059144,56.7810117 60.2876265,56.0610117 60.4127626,55.2975875 C60.8642802,52.534786 63.4795331,50.652607 66.2437354,51.1059922 C69.0070039,51.5589105 70.8868482,54.1746304 70.4348638,56.9374319 C70.3223346,57.6242802 69.7284047,58.1122179 69.0546304,58.1122179" id="Fill-8" fill="#FF7BAC"></path>
                            <path d="M71.7838132,81.9389883 C59.4308171,88.7089494 54.0434241,79.035642 54.0434241,79.035642 C47.1441245,69.1531518 37.5698054,76.339144 37.5698054,76.339144 C39.7148638,63.2329961 52.0785992,54.347393 65.1847471,56.4924514 C78.2913619,58.6375097 87.176965,71.0012451 85.0319066,84.107393 C85.0319066,84.107393 78.9305837,78.0224125 71.7838132,81.9389883" id="Fill-9" fill="#FFB0D0"></path>
                            <path d="M63.574786,85.7467704 C56.76,85.7467704 53.3229572,80.5410117 52.8705058,79.8028016 C51.0639689,77.2286381 48.9119066,75.7223346 46.4726848,75.3254475 C42.2684825,74.6385992 38.4457588,77.4331518 38.4079377,77.4621012 C37.9494163,77.8015564 37.3293385,77.8319066 36.8423346,77.5344747 C36.3548638,77.2375097 36.0952529,76.6762646 36.1872374,76.1131518 C38.4541634,62.2650584 51.5663813,52.8476265 65.4112062,55.1094163 C79.2588327,57.3763424 88.6809339,70.4862257 86.4140078,84.3333852 C86.3294942,84.8521401 85.9620233,85.2793774 85.4619455,85.44 C84.9623346,85.6015564 84.4141634,85.4708171 84.0424903,85.099144 C83.8244358,84.8848249 78.5733852,79.8163424 72.4571206,83.1674708 C69.0289494,85.0463813 66.0747082,85.7467704 63.574786,85.7467704 L63.574786,85.7467704 Z M45.1045914,72.4150973 C45.6877821,72.4150973 46.2859144,72.4585214 46.894786,72.5561089 C50.1319844,73.07393 52.9237354,74.9845914 55.1920623,78.23393 L55.2672374,78.35393 C55.4596109,78.6924514 60.1797665,86.7007004 71.1109728,80.7109728 L71.7838132,81.9389883 L71.1109728,80.7109728 C76.0701946,77.9920623 80.898677,79.5273152 83.9145525,81.4533852 C84.5425681,70.061323 76.4684825,59.7585992 64.9587549,57.8745525 C53.6488716,56.0217899 42.8974319,62.9299611 39.6429572,73.6010895 C41.1007004,72.978677 43.0020233,72.4150973 45.1045914,72.4150973 L45.1045914,72.4150973 Z" id="Fill-10" fill="#FF7BAC"></path>
                            <path d="M51.5252918,75.9310506 C51.5252918,75.9310506 54.6364202,65.2930739 65.3000778,56.5111284" id="Fill-11" fill="#FFB0D0"></path>
                            <path d="M51.5257588,77.3313619 C51.3945525,77.3313619 51.2619455,77.3126848 51.1302724,77.27393 C50.3887938,77.0558755 49.9638911,76.2793774 50.1810117,75.5378988 C50.3126848,75.0868482 53.5382101,64.383035 64.4096498,55.4301946 C65.0068482,54.9375875 65.8898054,55.0235019 66.3814786,55.6207004 C66.8736187,56.2178988 66.7881712,57.100856 66.1909728,57.5925292 C56.0166537,65.9715175 52.8994553,76.2233463 52.8691051,76.32607 C52.6888716,76.9358755 52.130428,77.3313619 51.5257588,77.3313619" id="Fill-12" fill="#FF7BAC"></path>
                            <path d="M73.2140078,80.4270817 C73.2140078,80.4270817 73.6566537,69.3525292 66.3492607,57.6294163" id="Fill-13" fill="#FFB0D0"></path>
                            <path d="M73.2154086,81.8278599 L73.1584436,81.8269261 C72.3856809,81.7961089 71.7847471,81.145214 71.8146304,80.3729183 C71.8183658,80.2659922 72.132607,69.5561089 65.1609339,58.370428 C64.7519066,57.71393 64.951751,56.8496498 65.608716,56.4406226 C66.2656809,56.0311284 67.1290272,56.2319066 67.5385214,56.8884047 C74.987393,68.8403113 74.6329961,80.0129183 74.6143191,80.4831128 C74.5839689,81.2367315 73.9629572,81.8278599 73.2154086,81.8278599" id="Fill-14" fill="#FF7BAC"></path>
                            <path d="M37.6118288,77.5288716 L48.5962646,113.037665" id="Fill-15" fill="#FFB0D0"></path>
                            <path d="M48.5957977,114.439377 C47.9981323,114.439377 47.4438911,114.05323 47.2580545,113.452296 L36.2731518,77.943035 C36.0448249,77.2038911 36.4585214,76.4194553 37.1976654,76.1906615 C37.9349416,75.9628016 38.7212451,76.3755642 38.9500389,77.1147082 L49.9344747,112.623969 C50.1632685,113.363113 49.749572,114.147549 49.010428,114.376342 C48.8726848,114.418833 48.7330739,114.439377 48.5957977,114.439377" id="Fill-16" fill="#FF7BAC"></path>
                            <path d="M84.8432685,85.2592996 L63.1111284,115.413385" id="Fill-17" fill="#FFB0D0"></path>
                            <path d="M63.1097276,116.81463 C62.8263035,116.81463 62.5396109,116.728716 62.2921401,116.549883 C61.6641245,116.097899 61.5226459,115.222412 61.9746304,114.594864 L83.7067704,84.4407782 C84.1592218,83.8132296 85.035642,83.6703502 85.6622568,84.1232685 C86.2902724,84.5757198 86.431751,85.4512062 85.9797665,86.0787549 L64.2476265,116.23284 C63.9740078,116.612451 63.5449027,116.81463 63.1097276,116.81463" id="Fill-18" fill="#FF7BAC"></path>
                            <path d="M107.018054,42.2049805 C106.635642,42.2049805 106.276109,41.9677821 106.1393,41.5867704 L98.936965,21.5617121 C98.7618677,21.0765759 99.0140078,20.5414786 99.4996109,20.3668482 C99.9856809,20.1931518 100.519844,20.4438911 100.694008,20.9294942 L107.896809,40.9545525 C108.07144,41.4396887 107.8193,41.974786 107.334163,42.1494163 C107.229572,42.1867704 107.123113,42.2049805 107.018054,42.2049805" id="Fill-21" fill="#FFF3B6"></path>
                            <path d="M110.258521,41.7646693 C109.788794,41.7646693 109.384436,41.4112062 109.331206,40.9330739 L106.998911,19.7799222 C106.942412,19.2677043 107.312218,18.8059144 107.82537,18.7494163 C108.336187,18.6957198 108.799377,19.0631907 108.855875,19.5758755 L111.188171,40.7290272 C111.244669,41.2412451 110.874864,41.703035 110.361712,41.7595331 L110.258521,41.7646693" id="Fill-22" fill="#FFF3B6"></path>
                            <path d="M88.2350195,23.6157198 C88.2350195,23.6157198 94.7322957,26.1543969 99.5201556,21.3137743 L94.1056809,15.7256031 L88.8056031,19.3629572 L88.2350195,23.6157198" id="Fill-23" fill="#FFF3B6"></path>
                            <path d="M92.2627237,25.2266148 C89.8463813,25.2266148 88.0407782,24.5425681 87.8955642,24.4856031 C87.4944747,24.3291829 87.252607,23.9187549 87.309572,23.4919844 L87.8796887,19.2387549 C87.9147082,18.9772763 88.0594553,18.7424125 88.2770428,18.5925292 L93.5771206,14.9551751 C93.9529961,14.6983658 94.4596109,14.7487938 94.7761868,15.075642 L100.191128,20.6638132 C100.544591,21.0284825 100.54179,21.6088716 100.184125,21.9702724 C97.6216342,24.5612451 94.6454475,25.2266148 92.2627237,25.2266148 L92.2627237,25.2266148 Z M89.2650584,22.9638911 C90.8493385,23.39393 94.8354864,24.0700389 98.1833463,21.2754864 L93.9838132,16.9414786 L89.6759533,19.8980545 L89.2650584,22.9638911 L89.2650584,22.9638911 Z" id="Fill-24" fill="#FFDC0D"></path>
                            <path d="M118.638911,16.5758755 C118.638444,16.5758755 115.117354,22.5226459 107.490117,19.4684825 L109.897588,12.0686381 L116.257121,13.0062257 L118.638911,16.5758755" id="Fill-25" fill="#FFF3B6"></path>
                            <path d="M111.638288,21.2726848 C110.313152,21.2726848 108.816187,21.0051362 107.143191,20.3350973 C106.686537,20.1520623 106.449805,19.6468482 106.602023,19.1789883 L109.009494,11.7796109 C109.150506,11.3467704 109.580078,11.0787549 110.03393,11.1445914 L116.393463,12.0826459 C116.654942,12.1209339 116.887471,12.2684825 117.034086,12.4879377 L119.415875,16.0575875 C119.615253,16.3559533 119.625058,16.7425681 119.44249,17.0516732 C119.410739,17.1049027 116.866926,21.2726848 111.638288,21.2726848 L111.638288,21.2726848 Z M108.657432,18.8992996 C113.781012,20.5638911 116.601245,17.7385214 117.509883,16.566537 L115.71035,13.869572 L110.541479,13.1070817 L108.657432,18.8992996 L108.657432,18.8992996 Z" id="Fill-26" fill="#FFDC0D"></path>
                            <path d="M97.4605447,4.09354086 C97.1631128,2.80949416 97.9629572,1.5277821 99.2470039,1.23035019 C100.530584,0.933385214 101.812296,1.73322957 102.109728,3.01680934" id="Fill-27" fill="#FFE876"></path>
                            <path d="M97.4596109,5.027393 C97.0351751,5.027393 96.6508949,4.73603113 96.5509728,4.30412451 C96.3511284,3.44031128 96.499144,2.55035019 96.9688716,1.7981323 C97.4381323,1.04544747 98.172607,0.521089494 99.0359533,0.321245136 C100.816809,-0.0938521401 102.606537,1.02256809 103.0193,2.80622568 C103.135564,3.30863813 102.822724,3.81011673 102.320311,3.92638132 C101.818366,4.04357977 101.31642,3.73027237 101.199689,3.227393 C101.018988,2.44762646 100.240623,1.95968872 99.4575875,2.14038911 C98.6773541,2.32108949 98.1898833,3.10272374 98.3705837,3.88249027 C98.4868482,4.38536965 98.1740078,4.88684825 97.6715953,5.00311284 C97.6006226,5.01945525 97.5296498,5.027393 97.4596109,5.027393" id="Fill-28" fill="#FFDC0D"></path>
                            <path d="M110.01572,17.9505058 C104.270195,25.0599222 98.6512062,20.5821012 98.6512062,20.5821012 C92.0731518,16.351284 88.098677,23.0255253 88.098677,23.0255253 C86.1543969,14.6297276 91.3844358,6.24793774 99.7802335,4.30365759 C108.176031,2.35984436 116.557821,7.58988327 118.502101,15.985214 C118.502101,15.985214 113.3393,13.8373541 110.01572,17.9505058" id="Fill-29" fill="#FFE876"></path>
                            <path d="M88.099144,23.9589105 C88.0501167,23.9589105 88.0015564,23.9547082 87.9525292,23.9467704 C87.5771206,23.8874708 87.2745525,23.6073152 87.1886381,23.2365759 C86.1922179,18.9329183 86.9313619,14.4989883 89.2697276,10.7505058 C91.6076265,7.00342412 95.2659922,4.39003891 99.5696498,3.3940856 C108.452918,1.33680934 117.354397,6.89089494 119.411673,15.7746304 C119.490584,16.1159533 119.372451,16.4722179 119.10537,16.698677 C118.837821,16.9246693 118.466615,16.9811673 118.143035,16.8476265 C117.961868,16.7724514 113.574163,15.0336187 110.742257,18.5374319 C104.790817,25.9017899 98.7525292,21.8133852 98.1226459,21.3529961 C96.4094942,20.2571206 94.7519066,19.8859144 93.1984436,20.2459144 C90.5150195,20.8697276 88.9157977,23.4793774 88.8994553,23.5059922 C88.7285603,23.7889494 88.4227237,23.9589105 88.099144,23.9589105 L88.099144,23.9589105 Z M94.3802335,18.2418677 C95.9477043,18.2418677 97.5478599,18.7620233 99.1564202,19.7967315 L99.2329961,19.8518288 C99.4314397,20.0073152 104.222568,23.6329961 109.289183,17.3640467 C111.589261,14.5181323 114.850739,14.2347082 117.139611,14.6362646 C114.697588,7.67906615 107.337432,3.5122179 99.9908171,5.21322957 C96.1736965,6.09758755 92.9280934,8.41540856 90.8540078,11.7399222 C89.1403891,14.4859144 88.3947082,17.6484047 88.68607,20.816965 C89.6101167,19.8873152 90.9805447,18.8488716 92.7567315,18.4314397 C93.2932296,18.3049027 93.8348638,18.2418677 94.3802335,18.2418677 L94.3802335,18.2418677 Z" id="Fill-30" fill="#FFDC0D"></path>
                            <path d="M96.3740078,19.3396109 C96.3740078,19.3396109 95.6189883,12.1872374 99.8540078,4.28638132" id="Fill-31" fill="#FFE876"></path>
                            <path d="M96.372607,20.2729961 C95.9014786,20.2729961 95.4957198,19.9171984 95.4452918,19.4376654 C95.4135409,19.1341634 94.7094163,11.9066148 99.031284,3.84513619 C99.2745525,3.39128405 99.84,3.21992218 100.29572,3.46365759 C100.750039,3.707393 100.920934,4.27330739 100.677198,4.72809339 C96.6401556,12.258677 97.2957198,19.1738521 97.3031907,19.2429572 C97.3559533,19.755642 96.9833463,20.2141634 96.4706615,20.2678599 L96.372607,20.2729961" id="Fill-32" fill="#FFDC0D"></path>
                            <path d="M110.501323,16.6902724 C110.501323,16.6902724 108.03642,9.93385214 100.759377,4.69914397" id="Fill-33" fill="#FFE876"></path>
                            <path d="M110.501323,17.6245914 C110.120311,17.6245914 109.762646,17.3892607 109.623969,17.0110506 C109.58428,16.9036576 107.127782,10.4306615 100.214008,5.45696498 C99.7951751,5.15579767 99.6999222,4.57214008 100.001556,4.15377432 C100.302724,3.73540856 100.885914,3.63922179 101.304747,3.94085603 C108.729805,9.28249027 111.273619,16.0832685 111.378677,16.370428 C111.555642,16.8550973 111.306304,17.3906615 110.821634,17.5676265 C110.715642,17.6059144 110.607782,17.6245914 110.501323,17.6245914" id="Fill-34" fill="#FFDC0D"></path>
                            <path d="M88.4171206,23.7291829 L103.765914,42.3343191" id="Fill-35" fill="#FFE876"></path>
                            <path d="M103.765914,43.2681712 C103.496965,43.2681712 103.229883,43.1523735 103.044981,42.928716 L87.6961868,24.3235798 C87.3679377,23.9257588 87.4244358,23.3374319 87.8227237,23.008716 C88.2200778,22.6809339 88.8093385,22.7374319 89.1371206,23.1352529 L104.485914,41.7403891 C104.814163,42.1377432 104.757665,42.726537 104.359844,43.054786 C104.186148,43.1985992 103.975564,43.2681712 103.765914,43.2681712" id="Fill-36" fill="#FFDC0D"></path>
                            <path d="M118.672996,16.7234241 L113.063813,40.181323" id="Fill-37" fill="#FFE876"></path>
                            <path d="M113.064747,41.115642 C112.99284,41.115642 112.92,41.1072374 112.846693,41.0899611 C112.345214,40.9699611 112.035642,40.4661479 112.155642,39.9646693 L117.764825,16.5063035 C117.885292,16.004358 118.391907,15.6966537 118.890117,15.814786 C119.391595,15.934786 119.701167,16.4385992 119.581167,16.9400778 L113.972451,40.3989105 C113.869728,40.8275486 113.487315,41.115642 113.064747,41.115642" id="Fill-38" fill="#FFDC0D"></path>
                            <g id="Group-43" transform="translate(8.871595, 51.828794)">
                                <mask id="mask-2" fill="white">
                                    <use xlink:href="#path-1"></use>
                                </mask>
                                <g id="Clip-42"></g>
                                <polygon id="Fill-41" fill="#EBEBEB" mask="url(#mask-2)" points="0.302568093 0.334319066 3.9922179 0.334319066 3.9922179 17.8804669 0.302568093 17.8804669"></polygon>
                            </g>
                            <path d="M16.2345525,52.2840467 C15.8806226,52.2840467 15.5836576,52.5581323 15.5481712,52.9153307 L13.9185992,69.1270039 C13.8798444,69.511751 14.16,69.8554086 14.5447471,69.8936965 L14.6157198,69.8974319 C14.9710506,69.8974319 15.2759533,69.6280156 15.3119066,69.2670817 L16.9414786,53.0558755 C16.9802335,52.6711284 16.7000778,52.3274708 16.3153307,52.288716 C16.2877821,52.2854475 16.2611673,52.2840467 16.2345525,52.2840467" id="Fill-44" fill="#EBEBEB"></path>
                            <path d="M0.870350195,52.7911284 C0.870350195,52.7911284 5.32996109,55.7290272 9.68824903,52.8686381 L6.52529183,47.8197665 L1.97603113,49.6977432 L0.870350195,52.7911284" id="Fill-45" fill="#F2F2F2"></path>
                            <path d="M5.52840467,54.8311284 C2.73992218,54.8311284 0.616342412,53.463035 0.484669261,53.3766537 C0.215252918,53.1987549 0.101789883,52.8597665 0.210583658,52.5557977 L1.31626459,49.4619455 C1.38303502,49.2751751 1.52498054,49.1257588 1.70848249,49.0501167 L6.25774319,47.1721401 C6.57385214,47.0414008 6.9366537,47.1585992 7.11875486,47.4476265 L10.2817121,52.4964981 C10.4838911,52.8196109 10.3909728,53.2449805 10.0725292,53.4541634 C8.50319066,54.4842023 6.93151751,54.8311284 5.52840467,54.8311284 L5.52840467,54.8311284 Z M1.72669261,52.4745525 C2.84124514,53.0498054 5.74132296,54.208716 8.71377432,52.6323735 L6.24560311,48.6929183 L2.5307393,50.2258366 L1.72669261,52.4745525 L1.72669261,52.4745525 Z" id="Fill-46" fill="#CCCCCC"></path>
                            <path d="M24.7606226,52.3718288 C24.7606226,52.3718288 21.1746304,56.2631907 15.9506615,52.7584436 L18.9343191,47.6017121 L23.5466148,49.3190661 L24.7606226,52.3718288" id="Fill-47" fill="#F2F2F2"></path>
                            <path d="M20.2580545,54.9161089 C18.8936965,54.9161089 17.305214,54.5108171 15.5603113,53.3402335 C15.2544747,53.134786 15.1596887,52.7271595 15.3441245,52.4077821 L18.3277821,47.2510506 C18.499144,46.9554864 18.859144,46.825214 19.1785214,46.9456809 L23.791284,48.663035 C23.9766537,48.7316732 24.1246693,48.8764202 24.1975097,49.0603891 L25.4110506,52.1131518 C25.5105058,52.3634241 25.4577432,52.648716 25.275642,52.8466926 C25.2476265,52.8765759 23.3168872,54.9161089 20.2580545,54.9161089 L20.2580545,54.9161089 Z M16.8952529,52.5235798 C20.4933852,54.6098054 23.0698833,52.9214008 23.9341634,52.1887938 L23.0110506,49.8667704 L19.244358,48.4645914 L16.8952529,52.5235798 L16.8952529,52.5235798 Z" id="Fill-48" fill="#CCCCCC"></path>
                            <path d="M10.8943191,39.6448249 C10.8761089,38.6357977 11.6796887,37.8037354 12.688249,37.7859922 C13.6972763,37.768716 14.5293385,38.5718288 14.5470817,39.580856" id="Fill-49" fill="#E6E6E6"></path>
                            <path d="M10.8933852,40.155642 C10.5123735,40.155642 10.2004669,39.8456031 10.193463,39.4627237 C10.1696498,38.0689494 11.2837354,36.8871595 12.6765759,36.8871595 L12.7218677,36.8871595 C14.0941634,36.8871595 15.2231907,38.0278599 15.2474708,39.4066926 C15.2544747,39.7933074 14.9463035,40.155642 14.5592218,40.155642 L14.5466148,40.155642 C14.16607,40.155642 13.8536965,39.8138521 13.8466926,39.4309728 C13.8359533,38.816965 13.3330739,38.2879377 12.7209339,38.2879377 L12.700856,38.2879377 C12.0798444,38.2879377 11.583035,38.8174319 11.5942412,39.4389105 C11.6007782,39.8255253 11.292607,40.155642 10.9055253,40.155642 L10.8933852,40.155642" id="Fill-50" fill="#CCCCCC"></path>
                            <path d="M18.0840467,52.0249027 C12.6471595,56.431751 9.1540856,52.1817899 9.1540856,52.1817899 C4.90365759,47.9640467 0.861945525,52.3274708 0.861945525,52.3274708 C0.74614786,45.7302724 6.00046693,40.288249 12.5971984,40.1724514 C19.1943969,40.0566537 24.6364202,45.3109728 24.7522179,51.9081712 C24.7522179,51.9081712 21.2292607,49.4754864 18.0840467,52.0249027" id="Fill-51" fill="#E6E6E6"></path>
                            <path d="M13.2798444,54.7232685 C10.5968872,54.7232685 8.90007782,52.9484825 8.64607004,52.6641245 C7.53151751,51.5640467 6.33338521,51.0345525 5.11330739,51.0452918 C2.98645914,51.0901167 1.39143969,52.7859922 1.3755642,52.8032685 C1.18085603,53.0133852 0.878287938,53.0838911 0.611673152,52.9816342 C0.34459144,52.8793774 0.166225681,52.6253696 0.16155642,52.3396109 C0.102256809,48.9614008 1.36202335,45.7634241 3.70832685,43.3330739 C6.05509728,40.9027237 9.20731518,39.5313619 12.5850584,39.4720623 C15.9744747,39.4080934 19.1617121,40.6725292 21.5920623,43.0192996 C24.0224125,45.3656031 25.3933074,48.5182879 25.452607,51.8960311 C25.4568093,52.1584436 25.3143969,52.4017121 25.0832685,52.5254475 C24.8512062,52.6496498 24.5701167,52.6342412 24.35393,52.484358 C24.2283268,52.3989105 21.2143191,50.3901946 18.5248249,52.5688716 L18.0835798,52.0249027 L18.5248249,52.5688716 C16.5291829,54.1863035 14.7553307,54.7232685 13.2798444,54.7232685 L13.2798444,54.7232685 Z M5.20015564,49.6435798 C6.7863035,49.6435798 8.2818677,50.3299611 9.64715953,51.6845136 L9.69525292,51.7372763 C9.81898833,51.8848249 12.8353307,55.376965 17.6428016,51.4809339 C19.8242802,49.7126848 22.3195331,50.0301946 23.9654475,50.7035019 C23.6488716,48.1648249 22.4852918,45.8287938 20.6189883,44.0269261 C18.4575875,41.9397665 15.6032685,40.8140078 12.6098054,40.8728405 C9.60607004,40.9251362 6.80264591,42.1447471 4.71595331,44.3061479 C2.98505837,46.099144 1.91906615,48.3623346 1.63610895,50.7964202 C2.47610895,50.2440467 3.67564202,49.6748638 5.08389105,49.6449805 L5.20015564,49.6435798 L5.20015564,49.6435798 Z" id="Fill-52" fill="#CCCCCC"></path>
                            <path d="M7.64731518,50.8879377 C7.64731518,50.8879377 8.22303502,45.4118288 12.6555642,40.1715175" id="Fill-53" fill="#F2F2F2"></path>
                            <path d="M7.64824903,51.5878599 L7.57307393,51.5841245 C7.18879377,51.5435019 6.91050584,51.1989105 6.95066148,50.8146304 C6.97494163,50.5825681 7.60108949,45.0625681 12.1204669,39.7190661 C12.3702724,39.4249027 12.8110506,39.3870817 13.1075486,39.6368872 C13.4031128,39.8866926 13.44,40.3284047 13.1901946,40.6239689 C8.96217899,45.6224125 8.34957198,50.9094163 8.34350195,50.9626459 C8.30474708,51.3212451 8.00124514,51.5878599 7.64824903,51.5878599" id="Fill-54" fill="#CCCCCC"></path>
                            <path d="M18.6485603,51.1587549 C18.6485603,51.1587549 17.8809339,45.7059922 13.2677043,40.6249027" id="Fill-55" fill="#F2F2F2"></path>
                            <path d="M18.6476265,51.859144 C18.3049027,51.859144 18.0051362,51.606537 17.9551751,51.2572763 C17.9477043,51.2049805 17.1497276,45.9427237 12.7494163,41.0960311 C12.4893385,40.8088716 12.5103502,40.3662257 12.7965759,40.1066148 C13.0832685,39.8470039 13.5263813,39.8680156 13.7859922,40.1537743 C18.4902724,45.3357198 19.3097276,50.8300389 19.3424125,51.0611673 C19.3961089,51.4440467 19.1299611,51.7975097 18.7470817,51.8521401 L18.6476265,51.859144" id="Fill-56" fill="#CCCCCC"></path>
                            <path d="M0.988015564,52.9050584 L9.5122179,69.2866926" id="Fill-57" fill="#F2F2F2"></path>
                            <path d="M9.51268482,69.9870817 C9.26007782,69.9870817 9.01587549,69.8498054 8.8907393,69.6098054 L0.366536965,53.2286381 C0.188171206,52.8859144 0.321245136,52.4624125 0.664902724,52.2840467 C1.00715953,52.1070817 1.43066148,52.2387549 1.60949416,52.5819455 L10.1336965,68.9631128 C10.3120623,69.3063035 10.1789883,69.7293385 9.83533074,69.9081712 C9.732607,69.9614008 9.6214786,69.9870817 9.51268482,69.9870817" id="Fill-58" fill="#CCCCCC"></path>
                            <path d="M24.7624903,52.4880934 L16.818677,69.1582879" id="Fill-59" fill="#F2F2F2"></path>
                            <path d="M16.8182101,69.858677 C16.7168872,69.858677 16.6146304,69.8367315 16.5170428,69.7909728 C16.1677821,69.6242802 16.0197665,69.2063813 16.1859922,68.8571206 L24.1302724,52.1864591 C24.296965,51.8376654 24.7143969,51.6905837 25.0641245,51.8554086 C25.4133852,52.0216342 25.5614008,52.44 25.3951751,52.7892607 L17.4508949,69.4599222 C17.330428,69.7115953 17.0796887,69.858677 16.8182101,69.858677" id="Fill-60" fill="#CCCCCC"></path>
                        </g>
                        <path d="M65.2677005,133.33268 C65.2677005,135.70411 64.4009149,137.658466 62.6673178,139.195807 C60.9337208,140.733147 58.4314908,141.681705 55.1605529,142.041508 L55.1605529,147.364933 L51.8978086,147.364933 L51.8978086,142.1887 C47.8418456,142.123281 44.5137162,141.501812 41.9133206,140.324275 L41.9133206,135.148041 C43.3198239,135.834938 44.9634455,136.411432 46.8442348,136.877541 C48.7250241,137.34365 50.4095319,137.584878 51.8978086,137.601232 L51.8978086,128.426297 L49.837128,127.665808 C47.1549589,126.635463 45.1965143,125.404791 43.9617352,123.973755 C42.7269561,122.54272 42.1095759,120.772351 42.1095759,118.662597 C42.1095759,116.405649 42.9886272,114.54942 44.7467564,113.093853 C46.5048855,111.638285 48.8885457,110.755145 51.8978086,110.444406 L51.8978086,106.323045 L55.1605529,106.323045 L55.1605529,110.37081 C58.4805549,110.485293 61.6287854,111.155825 64.6053389,112.382427 L62.8145093,116.871767 C60.2468231,115.857776 57.6955298,115.252662 55.1605529,115.056406 L55.1605529,123.986021 L57.0249782,124.697447 C60.1323692,125.891339 62.2829786,127.150631 63.4768709,128.475361 C64.6707633,129.800091 65.2677005,131.419181 65.2677005,133.33268 Z M59.4781693,133.700658 C59.4781693,132.752086 59.1469918,131.971162 58.4846269,131.357861 C57.822262,130.74456 56.7142484,130.151711 55.1605529,129.579297 L55.1605529,137.404977 C58.0389782,136.9634 59.4781693,135.72864 59.4781693,133.700658 Z M47.8745751,118.613533 C47.8745751,119.54575 48.1648665,120.322586 48.745458,120.944064 C49.3260494,121.565543 50.3768225,122.178834 51.8978086,122.783958 L51.8978086,115.154533 C50.5894335,115.350789 49.5918124,115.751473 48.9049154,116.356597 C48.2180184,116.96172 47.8745751,117.714025 47.8745751,118.613533 Z" id="$" stroke="#27AE60" stroke-width="2" fill="#2ECC71" transform="translate(53.590511, 126.843989) rotate(-345.000000) translate(-53.590511, -126.843989) "></path>
                        <path d="M20.62358,80.603158 C20.62358,81.9426415 20.133983,83.0465441 19.1547744,83.9148989 C18.1755658,84.7832537 16.762201,85.3190391 14.9146376,85.522271 L14.9146376,88.5291655 L13.0717023,88.5291655 L13.0717023,85.605411 C10.7807237,85.5684597 8.90085608,85.2174279 7.43204317,84.5523051 L7.43204317,81.6285506 C8.22649544,82.0165389 9.15488213,82.3421671 10.2172311,82.6054449 C11.2795801,82.8687227 12.2310609,83.0049784 13.0717023,83.0142162 L13.0717023,77.8318268 L11.9077432,77.4022704 C10.3927412,76.8202879 9.28652916,76.1251526 8.58907397,75.3168436 C7.89161878,74.5085347 7.54289642,73.508556 7.54289642,72.3168776 C7.54289642,71.0420588 8.03942164,69.9935823 9.03248697,69.1714166 C10.0255523,68.3492508 11.371944,67.8504162 13.0717023,67.6748977 L13.0717023,65.3469794 L14.9146376,65.3469794 L14.9146376,67.6333277 C16.7899144,67.6979924 18.5681676,68.0767373 20.2494503,68.7695735 L19.2379144,71.3053416 C17.7875771,70.732597 16.3464992,70.3908029 14.9146376,70.2799491 L14.9146376,75.323772 L15.9677435,75.725615 C17.7229287,76.3999757 18.9376834,77.1112769 19.6120441,77.8595401 C20.2864047,78.6078033 20.62358,79.5223334 20.62358,80.603158 Z M17.3534091,80.8110079 C17.3534091,80.2752145 17.1663461,79.8341153 16.7922145,79.4876972 C16.4180829,79.1412791 15.7922302,78.8064132 14.9146376,78.4830896 L14.9146376,82.903363 C16.5404934,82.6539419 17.3534091,81.9564972 17.3534091,80.8110079 Z M10.7992107,72.2891642 C10.7992107,72.8157198 10.9631794,73.2545095 11.291122,73.6055466 C11.6190645,73.9565836 12.2125853,74.3029966 13.0717023,74.6447958 L13.0717023,70.3353757 C12.3326769,70.4462295 11.7691785,70.6725526 11.3811902,71.0143519 C10.9932019,71.3561511 10.7992107,71.7810843 10.7992107,72.2891642 Z" id="$" stroke="#B0B0B0" fill="#D7D7D7" transform="translate(14.027812, 76.938072) rotate(-364.000000) translate(-14.027812, -76.938072) "></path>
                        <path d="M119.382007,56.5317057 C119.382007,58.2112896 118.768099,59.5954776 117.540265,60.6843112 C116.312431,61.7731449 114.540207,62.4449684 112.22354,62.6998018 L112.22354,66.4701592 L109.912676,66.4701592 L109.912676,62.8040513 C107.040008,62.757718 104.682835,62.3175578 102.841084,61.4835575 L102.841084,57.8174497 C103.837251,58.3039498 105.001359,58.7122563 106.333443,59.0423814 C107.665526,59.3725065 108.858592,59.5433582 109.912676,59.5549415 L109.912676,53.0567219 L108.453183,52.5180995 C106.553515,51.7883492 105.166432,50.9167162 104.29189,49.9031742 C103.417348,48.8896322 102.980083,47.6357548 102.980083,46.1415043 C102.980083,44.5430038 103.602678,43.2283148 104.847887,42.1973978 C106.093096,41.1664808 107.781342,40.54099 109.912676,40.3209065 L109.912676,37.4019202 L112.22354,37.4019202 L112.22354,40.2687818 C114.574957,40.3498652 116.804716,40.8247748 118.912884,41.6935251 L117.644515,44.8731352 C115.825931,44.1549683 114.018957,43.7263913 112.22354,43.5873913 L112.22354,49.9118617 L113.544034,50.4157343 C115.744868,51.2613179 117.268054,52.1532215 118.113637,53.0914718 C118.959221,54.0297221 119.382007,55.1764552 119.382007,56.5317057 Z M115.281526,56.7923295 C115.281526,56.1204959 115.046967,55.5673999 114.577842,55.1330247 C114.108716,54.6986496 113.323957,54.2787599 112.22354,53.8733431 L112.22354,59.4159422 C114.262207,59.1031921 115.281526,58.2286633 115.281526,56.7923295 Z M107.063189,46.1067545 C107.063189,46.7670047 107.26879,47.3172049 107.679999,47.7573717 C108.091207,48.1975386 108.835425,48.6319072 109.912676,49.0604906 L109.912676,43.6568909 C108.986009,43.795891 108.279436,44.0796785 107.792936,44.508262 C107.306436,44.9368454 107.063189,45.4696709 107.063189,46.1067545 Z" id="$" stroke="#27AE60" stroke-width="1.4" fill="#2ECC71" transform="translate(111.111545, 51.936040) rotate(-12.000000) translate(-111.111545, -51.936040) "></path>
                    </g>
                </g>
            </g>
        </g>
    </g>
</svg>