<svg fill="#A2A2A2" xmlns="http://www.w3.org/2000/svg" xmlns:xlink="http://www.w3.org/1999/xlink" version="1.1" x="0px" y="0px" viewBox="0 0 168.292 195" enable-background="new 0 0 168.292 195" xml:space="preserve"><polygon points="98.561,156.685 98.561,129.244 81.257,129.244 81.257,156.685 62.143,156.685 90.236,189.838 118.328,156.685 "></polygon><path d="M145.341,60.118V45.374c0-0.773-0.324-1.558-0.866-2.109L108.553,6.886c-0.468-0.585-1.415-0.891-2.134-0.891H37.722  c-1.657,0-3,1.343-3,3v51.123h-9.425v59.57h9.425v25.232c0,1.658,1.343,3,3,3h38.535v-6H40.722v-22.232h98.619v22.232h-35.78v6  h38.78c1.657,0,3-1.342,3-3v-25.232h9.108v-59.57H145.341z M109.419,16.298l25.738,26.076h-25.738V16.298z M57.924,103.227  l-2.44-4.879c-1-1.88-1.64-3.28-2.399-4.839h-0.08c-0.56,1.56-1.24,2.959-2.08,4.839l-2.24,4.879h-6.959l7.799-13.638l-7.519-13.318  h6.999l2.36,4.919c0.8,1.64,1.4,2.959,2.04,4.479h0.08c0.64-1.72,1.16-2.919,1.84-4.479l2.279-4.919h6.959l-7.599,13.158  l7.999,13.798H57.924z M87.083,103.227H70.246V76.271h6.119v21.836h10.719V103.227z M99.285,103.627  c-3.079,0-6.119-0.801-7.639-1.641l1.239-5.039c1.641,0.84,4.16,1.679,6.76,1.679c2.799,0,4.278-1.159,4.278-2.919  c0-1.68-1.279-2.64-4.519-3.799c-4.479-1.56-7.399-4.04-7.399-7.959c0-4.599,3.84-8.119,10.199-8.119c3.039,0,5.278,0.64,6.878,1.36  l-1.359,4.919c-1.08-0.52-2.999-1.28-5.639-1.28s-3.92,1.2-3.92,2.6c0,1.72,1.52,2.48,4.999,3.8c4.76,1.759,6.999,4.239,6.999,8.039  C110.163,99.787,106.683,103.627,99.285,103.627z M130.483,103.227l-2.439-4.879c-1-1.88-1.64-3.28-2.399-4.839h-0.08  c-0.561,1.56-1.24,2.959-2.08,4.839l-2.239,4.879h-6.959l7.799-13.638l-7.519-13.318h6.998l2.36,4.919  c0.8,1.64,1.399,2.959,2.039,4.479h0.08c0.64-1.72,1.16-2.919,1.84-4.479l2.279-4.919h6.959l-7.599,13.158l7.999,13.798H130.483z   M139.341,60.118H40.722V11.995h62.697v33.378c0,1.657,1.343,3,3,3h32.922V60.118z"></path></svg>