<?xml version="1.0" encoding="UTF-8"?>
<svg width="359px" height="34px" viewBox="0 0 359 34" version="1.1" xmlns="http://www.w3.org/2000/svg" xmlns:xlink="http://www.w3.org/1999/xlink">
    <!-- Generator: Sketch 47.1 (45422) - http://www.bohemiancoding.com/sketch -->
    <title>feature-smilies</title>
    <desc>Created with Sketch.</desc>
    <defs></defs>
    <g id="Page-1" stroke="none" stroke-width="1" fill="none" fill-rule="evenodd">
        <g id="Second" transform="translate(-541.000000, -562.000000)" fill="#DCC4FC">
            <g id="Features" transform="translate(540.000000, 562.000000)">
                <g id="feature-smilies">
                    <g id=":)" transform="translate(348.000000, 13.000000) rotate(-270.000000) translate(-348.000000, -13.000000) translate(335.000000, 1.000000)">
                        <path d="M15.3509612,22.161204 C14.389769,21.3671103 14.2535312,19.9437632 15.0476249,18.9818184 C15.8402132,18.0206263 17.2635603,17.8836357 18.2262579,18.6784821 C18.717768,19.0849377 19.9860599,19.1481641 20.5588611,18.4556842 C21.1309097,17.7632044 20.8283261,16.5302892 20.3360633,16.123081 C19.3741184,15.3297399 19.2386333,13.9063928 20.0334797,12.944448 C20.826068,11.9825032 22.2501678,11.8462653 23.2121127,12.6418644 C25.7464383,14.7358632 26.1340765,18.7966553 24.0408304,21.3317336 C22.8568404,22.7648658 21.043597,23.5115397 19.2341171,23.5115397 C17.8423832,23.5115397 16.4529073,23.0704602 15.3509612,22.161204 Z" id="Fill-7"></path>
                        <path d="M2.79675338,21.8337815 C2.51298719,21.8337815 2.22621022,21.7539958 1.97179915,21.5868974 C0.203717483,20.4247356 -0.722850642,17.5230946 0.685442585,15.3786652 C1.33878225,14.3851071 2.38502896,13.7144555 3.63299805,13.4886468 C4.80118142,13.2778921 5.98968757,13.4984319 6.89442753,14.093814 C7.58916545,14.5499474 7.78260819,15.4840425 7.32572204,16.1780277 C6.86883588,16.8742711 5.93624619,17.0669611 5.24075558,16.6093222 C4.98559181,16.4422239 4.56634044,16.3805028 4.16741184,16.4520089 C3.74665507,16.5280311 3.39439359,16.7395386 3.20170355,17.0315844 C2.75610783,17.7105157 3.13847713,18.7507409 3.6247184,19.0698837 C4.32020902,19.5267699 4.51289906,20.4601123 4.0567656,21.1548502 C3.76697785,21.5951771 3.28675813,21.8337815 2.79675338,21.8337815" id="Fill-8"></path>
                        <path d="M12.6269562,8.4230063 C12.34319,8.4230063 12.0564131,8.34246788 11.802002,8.17612219 C10.8965094,7.58149276 10.2220942,6.5781497 9.95187654,5.42276215 C9.66359417,4.18758888 9.86381117,2.96069526 10.5156454,1.96788994 C11.1674797,0.974331913 12.2144791,0.303680248 13.4624482,0.0778716068 C14.6306316,-0.13213043 15.8198904,0.0869039525 16.7246304,0.683038766 C17.4193683,1.13917222 17.612811,2.07251461 17.1551722,2.76725253 C16.6990387,3.46349584 15.7672017,3.65543318 15.0709584,3.19779434 C14.815042,3.03144864 14.3912744,2.96972761 13.9976147,3.04048098 C13.5753525,3.11725592 13.2245964,3.32801065 13.0326591,3.6200565 C12.8407218,3.91285503 12.7865277,4.31931059 12.8836254,4.73630388 C12.9754542,5.12996361 13.1997575,5.49201013 13.4541686,5.65910853 C14.1496592,6.11524198 14.3431019,7.04858437 13.8869685,7.74332229 C13.5979334,8.18364914 13.116961,8.4230063 12.6269562,8.4230063" id="Fill-9"></path>
                    </g>
                    <g id=":D" transform="translate(19.784987, 19.907775) rotate(-55.000000) translate(-19.784987, -19.907775) translate(5.284987, 5.907775)">
                        <path d="M3.19787181,0 C1.8386924,0 0.577319946,0.874650818 0.147868719,2.24171431 C-0.3816379,3.92693484 0.555959807,5.7223299 2.2411624,6.25184216 C2.56044027,6.35189862 2.8830908,6.39911627 3.20012024,6.39911627 C4.56042387,6.39911627 5.82179632,5.52446545 6.25124755,4.15852619 C6.78075417,2.47218143 5.84315646,0.676786366 4.15795387,0.148398339 C3.838676,0.0483418833 3.51602547,0 3.19787181,0" id="Fill-16"></path>
                        <path d="M25.5955545,7.99889534 C24.235399,7.99889534 22.974164,8.87354616 22.5447596,10.2394854 C22.0153106,11.9258302 22.9528062,13.7212252 24.6378252,14.2507375 C24.9570683,14.350794 25.2796837,14.3980116 25.5966786,14.3980116 C26.956834,14.3980116 28.2191932,13.5233608 28.6485976,12.1562973 C29.1769225,10.4710768 28.240551,8.6756817 26.5544079,8.14616945 C26.2362889,8.04611299 25.9125494,7.99889534 25.5955545,7.99889534" id="Fill-17"></path>
                        <path d="M3.53405935,16.7853174 C2.94253294,18.6474159 3.14162646,20.8039488 4.08300507,22.7024252 C5.0911318,24.7350456 6.78400213,26.2072175 8.84859043,26.8483796 C9.60008216,27.0802893 10.371138,27.1962442 11.1490988,27.1962442 C12.511681,27.1962442 13.8857716,26.8392851 15.1631924,26.1401456 C17.0344414,25.1147409 18.4453584,23.4595422 19.0380357,21.5963069 C19.6088472,19.8001435 18.5972679,17.8868885 16.7789572,17.3218928 L7.8634803,14.5548917 C7.51938225,14.4491682 7.17068088,14.3980116 6.82888449,14.3980116 C5.35927509,14.3980116 3.99899451,15.3290609 3.53405935,16.7853174 Z" id="Fill-18"></path>
                    </g>
                </g>
            </g>
        </g>
    </g>
</svg>