<?xml version="1.0" encoding="UTF-8" standalone="no"?>
<svg width="60px" height="70px" viewBox="0 0 60 70" version="1.1" xmlns="http://www.w3.org/2000/svg" xmlns:xlink="http://www.w3.org/1999/xlink">
    <!-- Generator: Sketch 47.1 (45422) - http://www.bohemiancoding.com/sketch -->
    <title>noun_1155173</title>
    <desc>Created with Sketch.</desc>
    <defs>
        <linearGradient x1="18.3072039%" y1="50%" x2="88.2542666%" y2="50%" id="linearGradient-1">
            <stop stop-color="#97C5FC" offset="0%"></stop>
            <stop stop-color="#9DC5FC" offset="8.4173821%"></stop>
            <stop stop-color="#DFC3FC" offset="100%"></stop>
        </linearGradient>
        <linearGradient x1="18.3072039%" y1="50%" x2="88.2542666%" y2="50%" id="linearGradient-2">
            <stop stop-color="#97C5FC" offset="0%"></stop>
            <stop stop-color="#DFC3FC" offset="100%"></stop>
        </linearGradient>
    </defs>
    <g id="Page-1" stroke="none" stroke-width="1" fill="none" fill-rule="evenodd">
        <g id="noun_1155173" fill-rule="nonzero">
            <path d="M47.91,17.05 C47.1286868,16.4493531 46.1022021,16.2707487 45.1639283,16.5721941 C44.2256545,16.8736395 43.4952739,17.6166836 43.21,18.56 C42.28,21.66 42.55,24.7 42.81,27.64 C43.05,30.33 43.28,32.87 42.45,34.92 C41.2006437,37.6628081 38.2430802,39.2014012 35.28,38.65 C32.36114,37.8648753 30.3447392,35.2024032 30.38,32.18 C30.48,30.13 31.58,28.05 32.74,25.85 C33.4884845,24.483587 34.1562947,23.0745075 34.74,21.63 C37.11,15.37 36.4,8 33,3 C32.1045586,1.41491129 30.4839654,0.374438011 28.67,0.22 C25.97,0.14 24.25,2.31 22.85,4.08 C22.44,4.6 22.05,5.08 21.67,5.49 L14.52,13 C10.28,17.52 5.52,22.64 2.81,29 C-1.38505147,39.3741738 0.542494238,51.2208697 7.81,59.73 C13.5381778,66.1114022 21.7148052,69.748692 30.29,69.73 C32.7471342,69.7332505 35.1942796,69.417273 37.57,68.79 C48.3124239,65.7972472 56.5083825,57.0928926 58.85,46.19 C60.5346907,37.079339 57.9555929,27.698792 51.85,20.73 C50.657782,19.3797592 49.3383646,18.14741 47.91,17.05 L47.91,17.05 Z M53,45 C51.1452996,53.7237265 44.5931127,60.69217 36,63.08 C27.3626478,65.3784414 18.1698037,62.5670255 12.2955674,55.830555 C6.42133116,49.0940845 4.88731787,39.6041296 8.34,31.36 C10.59,25.98 14.81,21.48 18.9,17.12 L26,9.56 C26.54,8.98 27,8.37 27.5,7.78 C27.73,7.49 28.02,7.12 28.3,6.78 C30.4305091,10.6868143 30.7482887,15.3293183 29.17,19.49 C28.6672848,20.707828 28.0963808,21.8963766 27.46,23.05 C26.11,25.6 24.59,28.5 24.46,31.88 C24.2285041,37.7921111 28.2490333,43.0274134 34.0206568,44.3293387 C39.7922803,45.631264 45.6709933,42.6289682 48,37.19 C49.38,33.79 49.06,30.24 48.78,27.11 L48.72,26.44 C52.6324387,31.7775307 54.179931,38.4881513 53,45 L53,45 Z" id="Shape" fill="url(#linearGradient-1)"></path>
            <path d="M18.23,24.73 C17.6691466,24.3756441 16.9904441,24.2587431 16.3433571,24.405041 C15.6962701,24.5513389 15.1338667,24.9488378 14.78,25.51 C13.8589911,26.9562016 13.056378,28.4744781 12.38,30.05 C10.6111291,34.2712725 9.90713734,38.8626726 10.33,43.42 C10.4439894,44.7103086 11.5246661,45.6998439 12.82,45.7 L13.04,45.7 C14.4148709,45.5834045 15.4353195,44.3749785 15.32,43 C14.967081,39.2509753 15.5441158,35.4727711 17,32 C17.5632811,30.671955 18.2320887,29.3911884 19,28.17 C19.7329877,27.0066925 19.3889774,25.4698153 18.23,24.73 Z" id="Shape" fill="url(#linearGradient-2)"></path>
        </g>
    </g>
</svg>