<?xml version="1.0" encoding="UTF-8"?>
<svg width="1440px" height="343px" viewBox="0 0 1440 343" version="1.1" xmlns="http://www.w3.org/2000/svg" xmlns:xlink="http://www.w3.org/1999/xlink">
    <!-- Generator: Sketch 47.1 (45422) - http://www.bohemiancoding.com/sketch -->
    <title>footer</title>
    <desc>Created with Sketch.</desc>
    <defs>
        <linearGradient x1="0%" y1="0%" x2="101.999998%" y2="100.999999%" id="linearGradient-1">
            <stop stop-color="#E0C3FC" offset="0%"></stop>
            <stop stop-color="#8EC5FC" offset="100%"></stop>
        </linearGradient>
    </defs>
    <g id="Page-1" stroke="none" stroke-width="1" fill="none" fill-rule="evenodd">
        <g id="Second" transform="translate(0.000000, -1329.000000)">
            <g id="Bottom-Copy" transform="translate(-369.000000, 1329.000000)">
                <g id="footer">
                    <path d="M368,28.7029919 C608.166667,9.56766397 848.333333,6.98048676e-15 1088.5,0 C1328.66667,0 1568.83333,9.56766397 1809,28.7029919 L1809,342 L368,342 L368,28.7029919 Z" id="Rectangle-3" fill="url(#linearGradient-1)"></path>
                    <g id="loading-copy-2" opacity="0.659816576" transform="translate(0.000000, 161.000000)" fill="#FFFFFF">
                        <path d="M0,0.830732663 C0,0.830732663 107.42328,83.5700046 272.658528,81.7061976 C382.762224,80.4678292 483.368074,-9.53278486 630.129706,0.830732683 C729.23425,7.82939058 838.184976,106.229645 948.855456,104.816154 C1061.88754,103.371391 1180.26668,4.68343432 1352.39386,0.830732663 C1524.52103,-3.02196899 1672.85117,124.848952 1810.4616,127.919855 C2046.87547,133.198557 2210.08565,24.0845397 2214,35.4925397 L2214,275.642198 L0,275.642198 L0,0.830732663 Z" id="Fill-1" style="mix-blend-mode: overlay;" opacity="0.200000003"></path>
                        <path d="M0,199.407167 C0,199.407167 78.4516198,44.3734483 356.88426,49.2080886 C578.644404,53.0607904 623.55096,152.974606 752.541552,153.193509 C858.784032,153.368632 980.022672,44.9425971 1090.64002,49.2080883 C1200.24187,53.4360532 1299.58848,163.894764 1406.9232,164.74536 C1511.48894,165.570939 1599.63986,41.6152638 1766.83694,37.6562374 C1934.03402,33.697211 1983.40208,121.296139 2056.29286,153.193507 C2169.65556,202.790788 2214,210.959018 2214,210.959018 L2214,277.805895 L0,277.805895 L0,199.407167 Z" id="Fill-3" style="mix-blend-mode: overlay;" opacity="0.400000006"></path>
                        <path d="M2214,140.246423 C2104.93541,140.246423 2088.84701,226.250484 1745.02166,221.121888 C1651.77389,219.733414 1454.36184,97.9917915 1352.39386,94.0327652 C1234.66219,89.4545546 1112.95714,186.985449 992.480112,186.460081 C869.387616,185.922204 758.480976,99.5116073 643.47696,94.0327652 C517.36752,88.0223002 386.989488,208.969616 283.56912,198.011932 C65.439936,174.90823 0,105.584616 0,105.584616 L0,276.416914 L2214,276.416914 L2214,140.246423 Z" id="Fill-5" style="mix-blend-mode: overlay;" opacity="0.600000024"></path>
                        <path d="M2214,208.400126 C2200.55659,219.289012 2110.16045,234.774872 1930.43088,196.848275 C1846.46419,179.123346 1771.95571,94.7579334 1668.67704,92.8628544 C1565.83526,90.9740299 1433.42035,187.973302 1319.67389,185.29017 C1156.07995,181.443723 1093.95216,93.3069158 981.575424,92.8628544 C873.355104,92.4313018 788.514624,157.920977 687.101616,162.186468 C535.416048,168.565942 403.33176,81.7738281 283.56912,81.3110036 C81.439776,80.5229509 0,196.848275 0,196.848275 L0,275.247004 L2214,275.247004 L2214,208.400126 Z" id="Fill-7" opacity="0"></path>
                    </g>
                </g>
            </g>
        </g>
    </g>
</svg>