<?xml version="1.0" encoding="UTF-8" standalone="no"?>
<svg width="72px" height="88px" viewBox="0 0 72 88" version="1.1" xmlns="http://www.w3.org/2000/svg" xmlns:xlink="http://www.w3.org/1999/xlink">
    <!-- Generator: Sketch 47.1 (45422) - http://www.bohemiancoding.com/sketch -->
    <title>Shape</title>
    <desc>Created with Sketch.</desc>
    <defs>
        <linearGradient x1="18.3072039%" y1="50%" x2="88.2542666%" y2="50%" id="linearGradient-1">
            <stop stop-color="#97C5FC" offset="0%"></stop>
            <stop stop-color="#DFC3FC" offset="100%"></stop>
        </linearGradient>
    </defs>
    <g id="Page-1" stroke="none" stroke-width="1" fill="none" fill-rule="evenodd">
        <g id="history" fill-rule="nonzero" fill="url(#linearGradient-1)">
            <path d="M68,80 L64,80 L64,69.5 C64,63.7 58.2,58.8 52.6,54 C50.7,52.4 48,50 47,48.8 L47,39.1 C48,38 50.7,35.5 52.6,33.9 C58.2,29.2 64,24.3 64,18.5 L64,8 L68,8 C70.2,8 72,6.2 72,4 C72,1.8 70.2,0 68,0 L4,0 C1.8,0 0,1.8 0,4 C0,6.2 1.8,8 4,8 L8,8 L8,18.5 C8,24.3 13.8,29.2 19.4,34 C21.3,35.6 24,38.1 25,39.2 L25,48.9 C24,50 21.3,52.5 19.4,54.1 C13.8,58.8 8,63.7 8,69.5 L8,80 L4,80 C1.8,80 0,81.8 0,84 C0,86.2 1.8,88 4,88 L68,88 C70.2,88 72,86.2 72,84 C72,81.8 70.2,80 68,80 Z M16,69.5 C16,67.4 21.6,62.6 24.6,60.1 C29.4,56 33,53 33,49.3 L33,38.7 C33,34.9 29.4,31.9 24.6,27.8 C21.6,25.3 16,20.6 16,18.4 L16,8 L56,8 L56,18.5 C56,20.6 50.4,25.4 47.4,27.9 C42.6,32 39,35 39,38.7 L39,49.2 C39,53 42.6,56 47.4,60.1 C50.4,62.6 56,67.3 56,69.5 L56,80 L16,80 L16,69.5 Z M45,17 L45,15 C45,13.1 46.6,11.5 48.5,11.5 C50.4,11.5 52,13 52,15 L52,17 C52,18.9 50.4,20.5 48.5,20.5 C46.6,20.5 45,18.9 45,17 Z" id="Shape"></path>
        </g>
    </g>
</svg>