<?xml version="1.0" encoding="UTF-8"?>
<svg width="100px" height="100px" viewBox="0 0 100 100" version="1.1" xmlns="http://www.w3.org/2000/svg" xmlns:xlink="http://www.w3.org/1999/xlink">
    <!-- Generator: Sketch 47.1 (45422) - http://www.bohemiancoding.com/sketch -->
    <title>history</title>
    <desc>Created with Sketch.</desc>
    <defs></defs>
    <g id="Page-1" stroke="none" stroke-width="1" fill="none" fill-rule="evenodd">
        <g id="Second" transform="translate(-833.000000, -681.000000)">
            <g id="Features" transform="translate(248.000000, 674.000000)">
                <g id="history" transform="translate(585.000000, 7.000000)">
                    <path d="M50.5914894,92.8944681 L50.5914894,92.8944681 C49.4131915,94.5974468 47.0553191,95.0259574 45.352766,93.847234 L30.6651064,83.6804255 C28.9625532,82.5017021 28.533617,80.1442553 29.7123404,78.4417021 C30.8910638,76.7387234 33.2485106,76.3102128 34.9510638,77.4885106 L49.6387234,87.6557447 C51.3417021,88.8344681 51.7702128,91.1919149 50.5914894,92.8944681" id="Fill-1" fill="#F2F2F2"></path>
                    <path d="M47.4787234,95.7906383 C46.4634043,95.7906383 45.4753191,95.4851064 44.6259574,94.8970213 L29.9387234,84.7302128 C28.8348936,83.9659574 28.0940426,82.813617 27.8519149,81.4859574 C27.6106383,80.1578723 27.8987234,78.8187234 28.6625532,77.7148936 C29.4268085,76.6110638 30.5787234,75.8702128 31.9068085,75.6285106 C33.2361702,75.3876596 34.5740426,75.6748936 35.6782979,76.4391489 L50.3651064,86.6055319 C52.6514894,88.1885106 53.2234043,91.3357447 51.6417021,93.6208511 L51.6417021,93.6212766 C50.8774468,94.7251064 49.7251064,95.4659574 48.3970213,95.7076596 C48.0906383,95.7634043 47.7834043,95.7906383 47.4787234,95.7906383 L47.4787234,95.7906383 Z M32.8195745,78.0991489 C32.6685106,78.0991489 32.5157447,78.112766 32.3638298,78.1404255 C31.7068085,78.26 31.1382979,78.6246809 30.7621277,79.1680851 C30.3859574,79.7114894 30.2446809,80.3723404 30.3638298,81.0289362 C30.4838298,81.6859574 30.8485106,82.2548936 31.3923404,82.6310638 L46.0791489,92.7974468 C46.6229787,93.173617 47.2851064,93.3140426 47.94,93.1957447 C48.5970213,93.0757447 49.1659574,92.7110638 49.5421277,92.1676596 C50.3229787,91.0395745 50.0404255,89.486383 48.9119149,88.7051064 L34.2251064,78.5382979 C33.807234,78.2497872 33.3208511,78.0991489 32.8195745,78.0991489 L32.8195745,78.0991489 Z" id="Fill-2" fill="#CCCCCC"></path>
                    <path d="M29.3540426,55.8765957 C37.4510638,61.4817021 39.4714894,72.5893617 33.866383,80.686383 C28.2612766,88.7834043 17.153617,90.8038298 9.05659574,85.1987234 C0.959574468,79.5940426 -1.06085106,68.4859574 4.54425532,60.3889362 C10.1493617,52.2919149 21.2570213,50.2714894 29.3540426,55.8765957" id="Fill-3" fill="#E6E6E6"></path>
                    <path d="M19.1651064,89.6506383 C15.3161702,89.6506383 11.5621277,88.4855319 8.33021277,86.2485106 C4.13361702,83.3434043 1.31957447,78.9787234 0.406382979,73.9570213 C-0.506808511,68.9353191 0.589787234,63.8587234 3.49446809,59.6625532 C6.39957447,55.4659574 10.7646809,52.6514894 15.786383,51.7387234 C20.8085106,50.8242553 25.8838298,51.9225532 30.0804255,54.827234 L30.0804255,54.827234 C34.2770213,57.7319149 37.0910638,62.0970213 38.0046809,67.1187234 C38.9178723,72.14 37.8208511,77.2165957 34.9161702,81.412766 C32.0110638,85.6097872 27.6459574,88.4238298 22.6246809,89.3365957 C21.4706383,89.5468085 20.313617,89.6506383 19.1651064,89.6506383 L19.1651064,89.6506383 Z M19.24,53.9791489 C18.2451064,53.9791489 17.2434043,54.0685106 16.2429787,54.2506383 C11.8923404,55.0421277 8.1106383,57.4795745 5.59404255,61.1153191 C0.398723404,68.6212766 2.27829787,78.9540426 9.78297872,84.1489362 C13.4195745,86.6655319 17.8182979,87.6170213 22.1676596,86.8246809 C26.5178723,86.0340426 30.3,83.5957447 32.8165957,79.96 C35.3331915,76.3238298 36.2838298,71.9259574 35.4923404,67.5753191 C34.7012766,63.2246809 32.2629787,59.4429787 28.627234,56.926383 L28.6268085,56.926383 C25.827234,54.9885106 22.5744681,53.9791489 19.24,53.9791489 L19.24,53.9791489 Z" id="Fill-4" fill="#CCCCCC"></path>
                    <path d="M26.4144681,60.1229787 C32.1668085,64.1042553 33.6017021,71.9948936 29.6204255,77.747234 C25.6387234,83.4991489 17.7480851,84.9340426 11.9961702,80.952766 C6.24382979,76.9710638 4.80893617,69.0804255 8.7906383,63.3285106 C12.7719149,57.5765957 20.6625532,56.1412766 26.4144681,60.1229787" id="Fill-5" fill="#FFFFFF"></path>
                    <path d="M19.1761702,84.4846809 C16.367234,84.4846809 13.6276596,83.6348936 11.2693617,82.0021277 C4.94808511,77.626383 3.36468085,68.9234043 7.74042553,62.6017021 C9.86085106,59.5395745 13.0459574,57.4859574 16.7106383,56.8191489 C20.373617,56.1540426 24.0787234,56.9531915 27.1412766,59.0731915 L27.1408511,59.0731915 L27.1412766,59.0731915 C33.4629787,63.4485106 35.0455319,72.1519149 30.6697872,78.473617 C28.5502128,81.5357447 25.3646809,83.5897872 21.7004255,84.2561702 C20.8587234,84.4089362 20.0140426,84.4846809 19.1761702,84.4846809 L19.1761702,84.4846809 Z M19.2217021,59.1514894 C15.6068085,59.1514894 12.0489362,60.8638298 9.84,64.0548936 C6.26553191,69.2187234 7.5587234,76.3280851 12.7225532,79.9025532 C15.2242553,81.6344681 18.2502128,82.2885106 21.2438298,81.7442553 C24.2370213,81.1995745 26.8387234,79.5221277 28.5706383,77.0208511 C30.3021277,74.5191489 30.9557447,71.492766 30.4114894,68.4995745 C29.867234,65.5059574 28.1893617,62.9042553 25.6880851,61.172766 L25.6876596,61.172766 C23.7153191,59.8068085 21.4570213,59.1514894 19.2217021,59.1514894 L19.2217021,59.1514894 Z" id="Fill-6" fill="#CCCCCC"></path>
                    <path d="M20.3578723,75.0744681 C19.8144681,74.6255319 19.7374468,73.8208511 20.186383,73.2770213 C20.6344681,72.733617 21.4391489,72.6561702 21.9834043,73.1055319 C22.2612766,73.3353191 22.9782979,73.3710638 23.3021277,72.9795745 C23.6255319,72.5880851 23.4544681,71.8910638 23.1761702,71.6608511 C22.6323404,71.2123404 22.5557447,70.4076596 23.0051064,69.8638298 C23.4531915,69.32 24.2582979,69.2429787 24.8021277,69.692766 C26.2348936,70.8765957 26.4540426,73.1723404 25.2706383,74.6055319 C24.6012766,75.4157447 23.5761702,75.8378723 22.5531915,75.8378723 C21.766383,75.8378723 20.9808511,75.5885106 20.3578723,75.0744681 Z" id="Fill-7" fill="#CCCCCC"></path>
                    <path d="M13.2604255,74.8893617 C13.1,74.8893617 12.9378723,74.8442553 12.7940426,74.7497872 C11.7944681,74.092766 11.2706383,72.4523404 12.0668085,71.24 C12.4361702,70.6782979 13.0276596,70.2991489 13.7331915,70.1714894 C14.393617,70.0523404 15.0655319,70.1770213 15.5770213,70.513617 C15.9697872,70.7714894 16.0791489,71.2995745 15.8208511,71.6919149 C15.5625532,72.0855319 15.0353191,72.1944681 14.6421277,71.9357447 C14.4978723,71.8412766 14.2608511,71.806383 14.0353191,71.8468085 C13.7974468,71.8897872 13.5982979,72.0093617 13.4893617,72.1744681 C13.2374468,72.5582979 13.453617,73.146383 13.7285106,73.3268085 C14.1217021,73.5851064 14.2306383,74.112766 13.972766,74.5055319 C13.8089362,74.7544681 13.5374468,74.8893617 13.2604255,74.8893617" id="Fill-8" fill="#CCCCCC"></path>
                    <path d="M18.8178723,67.3076596 C18.6574468,67.3076596 18.4953191,67.2621277 18.3514894,67.1680851 C17.8395745,66.8319149 17.4582979,66.2646809 17.3055319,65.6114894 C17.1425532,64.9131915 17.2557447,64.2195745 17.6242553,63.6582979 C17.992766,63.0965957 18.5846809,62.7174468 19.2902128,62.5897872 C19.9506383,62.4710638 20.6229787,62.5948936 21.1344681,62.9319149 C21.527234,63.1897872 21.6365957,63.7174468 21.3778723,64.1102128 C21.12,64.5038298 20.5931915,64.6123404 20.1995745,64.353617 C20.0548936,64.2595745 19.8153191,64.2246809 19.592766,64.2646809 C19.3540426,64.3080851 19.1557447,64.427234 19.047234,64.5923404 C18.9387234,64.7578723 18.9080851,64.9876596 18.9629787,65.2234043 C19.0148936,65.4459574 19.1417021,65.6506383 19.2855319,65.7451064 C19.6787234,66.0029787 19.7880851,66.5306383 19.5302128,66.9234043 C19.3668085,67.1723404 19.0948936,67.3076596 18.8178723,67.3076596" id="Fill-9" fill="#CCCCCC"></path>
                    <path d="M79.186383,83.0191489 L76.5557447,94.8131915 C76.3561702,95.7085106 76.9217021,96.5991489 77.8165957,96.7991489 C77.9370213,96.8255319 78.0574468,96.8382979 78.1757447,96.8382979 C78.9378723,96.8382979 79.6289362,96.3123404 79.8021277,95.5378723 L82.4140426,83.8280851 C82.0017021,83.7710638 81.5885106,83.6970213 81.1748936,83.6046809 C80.4940426,83.452766 79.8297872,83.2565957 79.186383,83.0191489" id="Fill-10" fill="#F8F8F8"></path>
                    <path d="M76.8195745,81.9038298 L74.0638298,94.2574468 C73.5574468,96.5268085 74.9919149,98.7842553 77.2608511,99.2906383 C77.5685106,99.3595745 77.8761702,99.3923404 78.1795745,99.3923404 C80.1102128,99.3923404 81.8565957,98.0548936 82.2940426,96.093617 L85,83.9621277 C84.8293617,83.9680851 84.6574468,83.9710638 84.4859574,83.9710638 C83.8004255,83.9710638 83.1085106,83.9242553 82.4140426,83.8280851 L79.8021277,95.5378723 C79.6289362,96.3123404 78.9378723,96.8382979 78.1757447,96.8382979 C78.0574468,96.8382979 77.9370213,96.8255319 77.8165957,96.7991489 C76.9217021,96.5991489 76.3561702,95.7085106 76.5557447,94.8131915 L79.186383,83.0191489 C78.3617021,82.7144681 77.5706383,82.3412766 76.8195745,81.9038298" id="Fill-11" fill="#E5E5E5"></path>
                    <path d="M84.5059574,79.9417021 C83.6902128,79.9417021 82.8685106,79.8510638 82.052766,79.6693617 C79.1417021,79.02 76.6578723,77.2757447 75.0587234,74.7587234 C73.4591489,72.2408511 72.9365957,69.2510638 73.5859574,66.3395745 C74.2348936,63.4289362 75.9791489,60.9451064 78.4965957,59.3459574 C80.3085106,58.1948936 82.3655319,57.6012766 84.4612766,57.6008511 C85.2770213,57.6008511 86.0991489,57.6910638 86.9148936,57.8731915 C89.8259574,58.5221277 92.3097872,60.266383 93.9093617,62.7838298 C95.5080851,65.3012766 96.0314894,68.2910638 95.3817021,71.2021277 C94.732766,74.1131915 92.9889362,76.5970213 90.4710638,78.1965957 C88.6591489,79.3476596 86.6021277,79.9417021 84.5059574,79.9417021 M84.4591489,56.1217021 C82.0851064,56.1217021 79.7561702,56.7940426 77.7034043,58.0978723 C74.852766,59.9085106 72.8778723,62.7217021 72.1421277,66.0182979 C71.4068085,69.3144681 71.9991489,72.7004255 73.8102128,75.5514894 C75.6212766,78.4021277 78.4340426,80.3774468 81.7310638,81.112766 C82.6540426,81.3182979 83.5842553,81.42 84.5080851,81.42 C86.8821277,81.42 89.2119149,80.7485106 91.2642553,79.4446809 C94.1148936,77.6340426 96.0897872,74.8208511 96.8255319,71.5242553 C97.5608511,68.2276596 96.9685106,64.8421277 95.1574468,61.9910638 C93.346383,59.14 90.533617,57.1651064 87.2370213,56.4293617 C86.313617,56.2234043 85.3829787,56.1217021 84.4591489,56.1217021" id="Fill-12" fill="#F2F2F2"></path>
                    <path d="M84.5080851,81.42 C83.5842553,81.42 82.6540426,81.3182979 81.7310638,81.112766 C78.4340426,80.3774468 75.6212766,78.4021277 73.8102128,75.5514894 C71.9991489,72.7004255 71.4068085,69.3144681 72.1421277,66.0182979 C72.8778723,62.7217021 74.852766,59.9085106 77.7034043,58.0978723 C79.7561702,56.7940426 82.0851064,56.1217021 84.4591489,56.1217021 C85.3829787,56.1217021 86.313617,56.2234043 87.2370213,56.4293617 C90.533617,57.1651064 93.346383,59.14 95.1574468,61.9910638 C96.9685106,64.8421277 97.5608511,68.2276596 96.8255319,71.5242553 C96.0897872,74.8208511 94.1148936,77.6340426 91.2642553,79.4446809 C89.2119149,80.7485106 86.8821277,81.42 84.5080851,81.42 M84.4523404,53.5676596 C81.6,53.5676596 78.8012766,54.3753191 76.3348936,55.9425532 C72.9080851,58.1191489 70.5340426,61.5 69.6506383,65.4621277 C68.766383,69.4246809 69.4782979,73.493617 71.6553191,76.9204255 C72.9782979,79.0034043 74.746383,80.6974468 76.8195745,81.9038298 C77.5706383,82.3412766 78.3617021,82.7144681 79.186383,83.0191489 C79.8297872,83.2565957 80.4940426,83.452766 81.1748936,83.6046809 C81.5885106,83.6970213 82.0017021,83.7710638 82.4140426,83.8280851 C83.1085106,83.9242553 83.8004255,83.9710638 84.4859574,83.9710638 C84.6574468,83.9710638 84.8293617,83.9680851 85,83.9621277 C91.7540426,83.7319149 97.7795745,78.9748936 99.3170213,72.0804255 C101.142128,63.9008511 95.9719149,55.7621277 87.7931915,53.9378723 C86.6821277,53.6902128 85.5634043,53.5676596 84.4523404,53.5676596" id="Fill-13" fill="#E5E5E5"></path>
                    <path d="M84.0902128,74.7506383 C83.8025532,74.7506383 83.5174468,74.707234 83.2395745,74.6204255 C82.4761702,74.3804255 81.8502128,73.8293617 81.4774468,73.0685106 C81.1293617,72.3578723 81.0557447,71.5506383 81.2744681,70.853617 C81.446383,70.3085106 81.9493617,69.96 82.492766,69.96 C82.6191489,69.96 82.7480851,69.9791489 82.8753191,70.0187234 L86.1719149,71.0544681 C86.8442553,71.2659574 87.2182979,71.9821277 87.007234,72.6544681 C86.7880851,73.3519149 86.266383,73.9714894 85.5744681,74.3553191 C85.1021277,74.6170213 84.5940426,74.7506383 84.0902128,74.7506383 M89.1085106,70.0540426 C88.9885106,70.0540426 88.866383,70.0361702 88.7455319,69.9982979 C88.1076596,69.7978723 87.752766,69.1182979 87.9531915,68.48 C88.1157447,67.9629787 88.5931915,67.6319149 89.1080851,67.6319149 C89.2280851,67.6319149 89.3506383,67.6497872 89.4710638,67.6876596 C90.1093617,67.8880851 90.4638298,68.5676596 90.2638298,69.2055319 C90.1012766,69.7229787 89.6234043,70.0540426 89.1085106,70.0540426 M81.1021277,67.5391489 C80.9821277,67.5391489 80.86,67.5212766 80.7391489,67.4834043 C80.1012766,67.2829787 79.746383,66.6034043 79.9468085,65.9655319 C80.1093617,65.4480851 80.5868085,65.1170213 81.1012766,65.1170213 C81.2217021,65.1170213 81.3438298,65.1353191 81.4646809,65.1731915 C82.1025532,65.3731915 82.4574468,66.052766 82.2570213,66.6910638 C82.0944681,67.2080851 81.6170213,67.5391489 81.1021277,67.5391489 M84.466383,60.1553191 C82.8497872,60.1553191 81.2634043,60.612766 79.8659574,61.5008511 C77.9238298,62.7344681 76.5782979,64.6497872 76.0774468,66.8957447 C75.5765957,69.1412766 75.9804255,71.4476596 77.213617,73.3893617 C78.447234,75.3310638 80.3629787,76.6765957 82.6089362,77.1774468 C83.2374468,77.3174468 83.8710638,77.3868085 84.5,77.3868085 C86.1170213,77.3868085 87.7042553,76.9293617 89.1021277,76.0412766 C91.0438298,74.8076596 92.3893617,72.8919149 92.8902128,70.6459574 C93.3910638,68.4008511 92.9876596,66.0948936 91.7540426,64.1531915 C90.5204255,62.2110638 88.6046809,60.8655319 86.3591489,60.3646809 C85.7297872,60.2246809 85.0961702,60.1553191 84.466383,60.1553191" id="Fill-14" fill="#F8F8F8"></path>
                    <path d="M84.5,77.3868085 C83.8710638,77.3868085 83.2374468,77.3174468 82.6089362,77.1774468 C80.3629787,76.6765957 78.447234,75.3310638 77.213617,73.3893617 C75.9804255,71.4476596 75.5765957,69.1412766 76.0774468,66.8957447 C76.5782979,64.6497872 77.9238298,62.7344681 79.8659574,61.5008511 C81.2634043,60.612766 82.8497872,60.1553191 84.466383,60.1553191 C85.0961702,60.1553191 85.7297872,60.2246809 86.3591489,60.3646809 C88.6046809,60.8655319 90.5204255,62.2110638 91.7540426,64.1531915 C92.9876596,66.0948936 93.3910638,68.4008511 92.8902128,70.6459574 C92.3893617,72.8919149 91.0438298,74.8076596 89.1021277,76.0412766 C87.7042553,76.9293617 86.1170213,77.3868085 84.5,77.3868085 M84.4612766,57.6008511 C82.3655319,57.6012766 80.3085106,58.1948936 78.4965957,59.3459574 C75.9791489,60.9451064 74.2348936,63.4289362 73.5859574,66.3395745 C72.9365957,69.2510638 73.4591489,72.2408511 75.0587234,74.7587234 C76.6578723,77.2757447 79.1417021,79.02 82.052766,79.6693617 C82.8685106,79.8510638 83.6902128,79.9417021 84.5059574,79.9417021 C86.6021277,79.9417021 88.6591489,79.3476596 90.4710638,78.1965957 C92.9889362,76.5970213 94.732766,74.1131915 95.3817021,71.2021277 C96.0314894,68.2910638 95.5080851,65.3012766 93.9093617,62.7838298 C92.3097872,60.266383 89.8259574,58.5221277 86.9148936,57.8731915 C86.0991489,57.6910638 85.2770213,57.6008511 84.4612766,57.6008511" id="Fill-15" fill="#E5E5E5"></path>
                    <path d="M81.1012766,65.1170213 C80.5868085,65.1170213 80.1093617,65.4480851 79.9468085,65.9655319 C79.746383,66.6034043 80.1012766,67.2829787 80.7391489,67.4834043 C80.86,67.5212766 80.9821277,67.5391489 81.1021277,67.5391489 C81.6170213,67.5391489 82.0944681,67.2080851 82.2570213,66.6910638 C82.4574468,66.052766 82.1025532,65.3731915 81.4646809,65.1731915 C81.3438298,65.1353191 81.2217021,65.1170213 81.1012766,65.1170213" id="Fill-16" fill="#E5E5E5"></path>
                    <path d="M89.1080851,67.6319149 C88.5931915,67.6319149 88.1157447,67.9629787 87.9531915,68.48 C87.752766,69.1182979 88.1076596,69.7978723 88.7455319,69.9982979 C88.866383,70.0361702 88.9885106,70.0540426 89.1085106,70.0540426 C89.6234043,70.0540426 90.1012766,69.7229787 90.2638298,69.2055319 C90.4638298,68.5676596 90.1093617,67.8880851 89.4710638,67.6876596 C89.3506383,67.6497872 89.2280851,67.6319149 89.1080851,67.6319149" id="Fill-17" fill="#E5E5E5"></path>
                    <path d="M82.492766,69.96 C81.9493617,69.96 81.446383,70.3085106 81.2744681,70.853617 C81.0557447,71.5506383 81.1293617,72.3578723 81.4774468,73.0685106 C81.8502128,73.8293617 82.4761702,74.3804255 83.2395745,74.6204255 C83.5174468,74.707234 83.8025532,74.7506383 84.0902128,74.7506383 C84.5940426,74.7506383 85.1021277,74.6170213 85.5744681,74.3553191 C86.266383,73.9714894 86.7880851,73.3519149 87.007234,72.6544681 C87.2182979,71.9821277 86.8442553,71.2659574 86.1719149,71.0544681 L82.8753191,70.0187234 C82.7480851,69.9791489 82.6191489,69.96 82.492766,69.96" id="Fill-18" fill="#E5E5E5"></path>
                    <path d="M57.9574468,57.5297872 L57.9574468,57.5297872 C56.0114894,58.7051064 53.4582979,58.0748936 52.2829787,56.1289362 L42.146383,39.3459574 C40.9710638,37.4 41.6017021,34.8468085 43.547234,33.6714894 C45.492766,32.4961702 48.046383,33.1268085 49.2217021,35.0723404 L59.3582979,51.8557447 C60.533617,53.8012766 59.9029787,56.3548936 57.9574468,57.5297872" id="Fill-19" fill="#DBB8FF"></path>
                    <path d="M55.8297872,59.4004255 C53.9961702,59.4004255 52.2055319,58.4697872 51.1902128,56.7889362 L41.053617,40.0059574 C39.5114894,37.452766 40.3340426,34.1212766 42.887234,32.5787234 C45.44,31.0361702 48.772766,31.8591489 50.3144681,34.4123404 L60.4514894,51.1957447 C61.9931915,53.7485106 61.1706383,57.0808511 58.6174468,58.6229787 C57.7451064,59.1493617 56.7817021,59.4004255 55.8297872,59.4004255 L55.8297872,59.4004255 Z M45.6706383,34.3553191 C45.1574468,34.3553191 44.6544681,34.4944681 44.207234,34.7642553 C43.5578723,35.1561702 43.0995745,35.7817021 42.9161702,36.5259574 C42.7323404,37.2697872 42.8468085,38.0370213 43.2391489,38.6859574 L53.3761702,55.4689362 C54.1897872,56.8165957 55.9489362,57.2523404 57.2970213,56.4370213 L57.2974468,56.4370213 C58.6455319,55.6229787 59.08,53.8638298 58.2655319,52.5153191 L48.1289362,35.7323404 C47.7370213,35.0829787 47.1114894,34.6246809 46.367234,34.4408511 C46.1361702,34.3838298 45.9021277,34.3553191 45.6706383,34.3553191 L45.6706383,34.3553191 Z" id="Fill-20" fill="#A53EFF"></path>
                    <path d="M53.3323404,10.9153191 C58.9204255,20.1676596 55.9502128,32.1982979 46.6978723,37.7868085 C37.4455319,43.3748936 25.4144681,40.4046809 19.826383,31.1523404 C14.2378723,21.9 17.2085106,9.86893617 26.4608511,4.28085106 C35.7131915,-1.30765957 47.7438298,1.66297872 53.3323404,10.9153191" id="Fill-21" fill="#C48DFF"></path>
                    <path d="M36.6165957,41.8902128 C34.9395745,41.8902128 33.2519149,41.686383 31.5821277,41.2740426 C26.1757447,39.9391489 21.612766,36.5791489 18.7331915,31.8123404 C12.7902128,21.9723404 15.9604255,9.13148936 25.8008511,3.18765957 C35.6408511,-2.75489362 48.4817021,0.415319149 54.4251064,10.2557447 C60.3680851,20.0957447 57.1974468,32.9361702 47.3574468,38.8795745 C44.0629787,40.8693617 40.3689362,41.8902128 36.6165957,41.8902128 L36.6165957,41.8902128 Z M36.5489362,2.74297872 C33.3293617,2.74297872 30.0714894,3.59106383 27.1204255,5.37361702 C22.9374468,7.89957447 19.9889362,11.9042553 18.8178723,16.6485106 C17.646383,21.392766 18.392766,26.3093617 20.9191489,30.4923404 C26.1344681,39.127234 37.4034043,41.9093617 46.0378723,36.693617 C54.672766,31.4787234 57.4548936,20.2102128 52.2395745,11.5753191 C48.806383,5.89148936 42.7497872,2.74297872 36.5489362,2.74297872 L36.5489362,2.74297872 Z" id="Fill-22" fill="#A53EFF"></path>
                    <path d="M48.48,13.8459574 C52.4497872,20.4187234 50.34,28.9651064 43.767234,32.9348936 C37.1944681,36.9046809 28.6480851,34.7944681 24.6782979,28.2217021 C20.7085106,21.6489362 22.8187234,13.1025532 29.3914894,9.13276596 C35.9638298,5.16297872 44.5102128,7.27319149 48.48,13.8459574" id="Fill-23" fill="#FFFFFF"></path>
                    <path d="M36.6046809,36.2102128 C31.4587234,36.2106383 26.4344681,33.5987234 23.5855319,28.8817021 C19.2582979,21.7170213 21.5668085,12.367234 28.7314894,8.04 C35.8970213,3.71319149 45.246383,6.02170213 49.5731915,13.1859574 C51.6693617,16.6565957 52.2885106,20.7357447 51.3165957,24.6723404 C50.3446809,28.6085106 47.8978723,31.9310638 44.4268085,34.0276596 C41.9791489,35.5059574 39.2748936,36.2097872 36.6046809,36.2102128 L36.6046809,36.2102128 Z M36.5582979,8.41021277 C34.3365957,8.41021277 32.0876596,8.99574468 30.0510638,10.2255319 C24.0914894,13.8251064 22.1719149,21.6021277 25.7714894,27.5617021 C29.3710638,33.5212766 37.1476596,35.4412766 43.107234,31.8417021 C45.9940426,30.0978723 48.0293617,27.3344681 48.8378723,24.0604255 C49.646383,20.7859574 49.1310638,17.392766 47.387234,14.5059574 C45.0182979,10.5829787 40.8382979,8.41021277 36.5582979,8.41021277 L36.5582979,8.41021277 Z" id="Fill-24" fill="#A53EFF"></path>
                    <path d="M44.5978723,23.2914894 C44.5978723,25.4753191 42.8276596,27.2455319 40.6438298,27.2455319 C38.4604255,27.2455319 36.6902128,25.4753191 36.6902128,23.2914894 C36.6902128,21.1080851 38.4604255,19.3378723 40.6438298,19.3378723 C42.8276596,19.3378723 44.5978723,21.1080851 44.5978723,23.2914894" id="Fill-25" fill="#FF6470"></path>
                    <path d="M70.5417021,18.6106383 C70.5417021,20.0821277 69.3489362,21.2744681 67.8778723,21.2744681 C66.4068085,21.2744681 65.2140426,20.0821277 65.2140426,18.6106383 C65.2140426,17.1395745 66.4068085,15.947234 67.8778723,15.947234 C69.3489362,15.947234 70.5417021,17.1395745 70.5417021,18.6106383" id="Fill-26" fill="#FF6470"></path>
                    <path d="M41.7038298,17.8910638 C41.3974468,17.8910638 41.0902128,17.7817021 40.8459574,17.5595745 C38.6910638,15.6025532 36.3902128,16.846383 36.1353191,16.9944681 C35.5280851,17.346383 34.7476596,17.1476596 34.3902128,16.5442553 C34.033617,15.9408511 34.2251064,15.1651064 34.8255319,14.8029787 C36.2361702,13.953617 39.6685106,13.0404255 42.5625532,15.6693617 C43.0842553,16.1434043 43.1234043,16.9506383 42.6493617,17.472766 C42.3974468,17.7502128 42.0510638,17.8910638 41.7038298,17.8910638" id="Fill-27" fill="#FF6470"></path>
                    <path d="M67.9642553,41.6902128 L66.0004255,36.7165957 C65.4931915,35.4319149 66.1293617,33.9655319 67.4140426,33.4582979 C68.6987234,32.9506383 70.1651064,33.5868085 70.6723404,34.8719149 L72.6365957,39.8451064" id="Fill-28" fill="#FFABB9"></path>
                    <path d="M67.9651064,42.967234 C67.4561702,42.967234 66.9757447,42.6608511 66.7774468,42.1591489 L64.8131915,37.1859574 C64.4425532,36.247234 64.46,35.2178723 64.8638298,34.2876596 C65.267234,33.3578723 66.006383,32.6417021 66.9451064,32.2710638 C67.8842553,31.9004255 68.9131915,31.9187234 69.8425532,32.3217021 C70.772766,32.7251064 71.4889362,33.4642553 71.8595745,34.4029787 L73.8234043,39.3761702 C74.0825532,40.0319149 73.7608511,40.7731915 73.1051064,41.0323404 C72.4493617,41.2931915 71.7080851,40.9693617 71.4489362,40.313617 L69.4851064,35.3404255 C69.3651064,35.0361702 69.1310638,34.7961702 68.8268085,34.6638298 C68.5225532,34.532766 68.1868085,34.5259574 67.8825532,34.6455319 C67.5787234,34.7655319 67.3382979,34.9995745 67.206383,35.3042553 C67.0740426,35.6085106 67.067234,35.9438298 67.1876596,36.2480851 L69.1519149,41.2208511 C69.4106383,41.8765957 69.0893617,42.6182979 68.433617,42.8774468 C68.2795745,42.9378723 68.1208511,42.967234 67.9651064,42.967234" id="Fill-29" fill="#FF6470"></path>
                    <path d="M62.9974468,44.3659574 C60.8153191,44.3659574 59.3012766,44.0182979 59.2578723,44.0080851 C58.5723404,43.8429787 58.1497872,43.153617 58.3148936,42.4685106 C58.48,41.7838298 59.1689362,41.3617021 59.8519149,41.5251064 C60.2876596,41.6280851 70.5689362,43.9382979 74.8953191,34.6885106 C75.1940426,34.0497872 75.9548936,33.7731915 76.5923404,34.0723404 C77.2310638,34.3710638 77.5068085,35.1314894 77.2085106,35.7697872 C73.7821277,43.0948936 67.1702128,44.3659574 62.9974468,44.3659574" id="Fill-30" fill="#FF6470"></path>
                    <path d="M80.9451064,34.5102128 C80.3991489,34.5102128 79.8940426,34.1574468 79.7255319,33.6080851 C79.4029787,32.56 78.8931915,31.8842553 78.1676596,31.5429787 C76.8306383,30.912766 75.0680851,31.5889362 75.0510638,31.5965957 C74.4008511,31.8655319 73.652766,31.5574468 73.3829787,30.9059574 C73.1131915,30.2548936 73.4221277,29.5080851 74.073617,29.2378723 C74.1859574,29.1914894 76.8604255,28.1051064 79.2548936,29.232766 C80.6480851,29.8880851 81.6276596,31.1080851 82.1655319,32.8578723 C82.372766,33.5319149 81.9944681,34.246383 81.3208511,34.4531915 C81.1957447,34.4919149 81.0693617,34.5102128 80.9451064,34.5102128" id="Fill-31" fill="#FF6470"></path>
                </g>
            </g>
        </g>
    </g>
</svg>