<?xml version="1.0" encoding="UTF-8"?>
<svg width="120px" height="113px" viewBox="0 0 120 113" version="1.1" xmlns="http://www.w3.org/2000/svg" xmlns:xlink="http://www.w3.org/1999/xlink">
    <!-- Generator: Sketch 47.1 (45422) - http://www.bohemiancoding.com/sketch -->
    <title>notif</title>
    <desc>Created with Sketch.</desc>
    <defs></defs>
    <g id="Page-1" stroke="none" stroke-width="1" fill="none" fill-rule="evenodd">
        <g id="Second" transform="translate(-248.000000, -674.000000)">
            <g id="Features" transform="translate(248.000000, 674.000000)">
                <g id="Email">
                    <g id="notif">
                        <path d="M50.45,20.8396 L29.6236,56.3796 C29.2884,56.9516 29.4804,57.6864 30.052,58.0216 C30.624,58.3568 31.3592,58.1648 31.694,57.5932 L52.5204,22.0528 C52.8556,21.4812 52.6636,20.746 52.092,20.4108 C51.52,20.076 50.7852,20.2676 50.45,20.8396" id="Fill-1" fill="#F7931E"></path>
                        <path d="M68.0236,22.0528 L88.85,57.5932 C89.1852,58.1648 89.92,58.3568 90.492,58.0216 C91.0636,57.6864 91.2556,56.9516 90.9208,56.3796 L70.094,20.8396 C69.7592,20.2676 69.024,20.076 68.452,20.4108 C67.8804,20.746 67.6884,21.4812 68.0236,22.0528" id="Fill-2" fill="#F7931E"></path>
                        <path d="M58.3248,21.3832 C57.794,21.3832 57.3084,21.738 57.1656,22.2752 L48.3148,55.582 C48.1444,56.2224 48.5256,56.8796 49.1664,57.05 C49.2696,57.0772 49.3732,57.0904 49.4752,57.0904 C50.006,57.0904 50.4916,56.7356 50.6344,56.1984 L59.4852,22.892 C59.6556,22.2512 59.274,21.594 58.6336,21.424 C58.5304,21.3964 58.4268,21.3832 58.3248,21.3832" id="Fill-3" fill="#FCD4A5"></path>
                        <path d="M63.8752,21.3832 C63.7732,21.3832 63.6696,21.3964 63.5664,21.424 C62.9256,21.594 62.5444,22.2512 62.7148,22.892 L71.5656,56.1984 C71.7084,56.7356 72.194,57.0904 72.7248,57.0904 C72.8268,57.0904 72.9304,57.0772 73.0336,57.05 C73.6744,56.8796 74.0556,56.2224 73.8852,55.582 L65.0344,22.2752 C64.8916,21.738 64.406,21.3832 63.8752,21.3832" id="Fill-4" fill="#FCD4A5"></path>
                        <path d="M89.592,101.2532 L30.6588,101.2532 C29.1188,101.2532 27.8588,99.9932 27.8588,98.4528 L27.8588,59.7864 C27.8588,58.2464 29.1188,56.9864 30.6588,56.9864 L89.592,56.9864 C91.132,56.9864 92.392,58.2464 92.392,59.7864 L92.392,98.4528 C92.392,99.9932 91.132,101.2532 89.592,101.2532" id="Fill-5" fill="#E4FFB0"></path>
                        <path d="M89.592,101.2532 L89.592,100.0532 L30.6588,100.0532 C30.2196,100.0528 29.8252,99.8756 29.53,99.582 C29.236,99.2864 29.0592,98.892 29.0588,98.4528 L29.0588,59.7864 C29.0592,59.3472 29.236,58.9528 29.53,58.6572 C29.8252,58.3636 30.2196,58.1868 30.6588,58.1864 L89.592,58.1864 C90.0312,58.1868 90.4256,58.3636 90.7212,58.6572 C91.0148,58.9528 91.192,59.3472 91.192,59.7864 L91.192,98.4528 C91.192,98.892 91.0148,99.2864 90.7212,99.582 C90.4256,99.8756 90.0312,100.0528 89.592,100.0532 L89.592,102.4532 C90.6928,102.4532 91.6988,102.0004 92.418,101.2792 C93.1392,100.5596 93.5924,99.554 93.592,98.4528 L93.592,59.7864 C93.5924,58.6856 93.1392,57.68 92.418,56.9604 C91.6988,56.2392 90.6928,55.786 89.592,55.7864 L30.6588,55.7864 C29.558,55.786 28.5524,56.2392 27.8328,56.9604 C27.1116,57.68 26.6584,58.6856 26.6588,59.7864 L26.6588,98.4528 C26.6584,99.554 27.1116,100.5596 27.8328,101.2792 C28.5524,102.0004 29.558,102.4532 30.6588,102.4532 L89.592,102.4532 L89.592,101.2532" id="Fill-6" fill="#8CC63F"></path>
                        <polyline id="Fill-7" fill="#BEEA71" points="29.1256 100.0532 60.5256 62.0528 91.5448 100.0532"></polyline>
                        <path d="M30.0504,100.8172 L60.52,63.9436 L90.6152,100.812 C91.0344,101.3252 91.7904,101.4016 92.3036,100.9828 C92.8172,100.5636 92.8936,99.8076 92.4744,99.294 L61.4552,61.294 C61.2272,61.0152 60.8892,60.854 60.5292,60.8528 C60.1688,60.852 59.83,61.0108 59.6004,61.2884 L28.2004,99.2884 C27.7784,99.7996 27.85,100.556 28.3612,100.978 C28.872,101.4004 29.6284,101.3284 30.0508,100.8172 L30.0504,100.8172" id="Fill-8" fill="#8CC63F"></path>
                        <path d="M92.3256,60.0528 C92.3256,77.7628 79.0196,93.3196 61.1256,93.3196 C43.2316,93.3196 27.9256,77.7628 27.9256,60.0528" id="Fill-9" fill="#BEEA71"></path>
                        <path d="M91.1256,60.0528 C91.1268,68.6064 87.9084,76.6416 82.5488,82.5192 C79.8696,85.4584 76.658,87.8576 73.0472,89.5224 C69.4356,91.1868 65.4248,92.1192 61.1256,92.1196 C52.5316,92.1212 44.5268,88.38 38.6664,82.4816 C32.8064,76.584 29.1236,68.5576 29.1256,60.0528 C29.1256,59.3904 28.5884,58.8532 27.9256,58.8532 C27.2628,58.8532 26.7256,59.3904 26.7256,60.0528 C26.7276,69.2584 30.6976,77.8652 36.964,84.1732 C43.2304,90.4808 51.8252,94.518 61.1256,94.5196 C65.7732,94.52 70.136,93.5076 74.052,91.702 C79.9276,88.9928 84.7956,84.5072 88.1936,78.9908 C91.5916,73.474 93.5252,66.92 93.5256,60.0528 C93.5256,59.3904 92.9884,58.8532 92.3256,58.8532 C91.6628,58.8532 91.1256,59.3904 91.1256,60.0528" id="Fill-10" fill="#8CC63F"></path>
                        <path d="M52.1256,67.9196 C52.1256,69.1348 51.1404,70.1196 49.9256,70.1196 C48.7104,70.1196 47.7256,69.1348 47.7256,67.9196 C47.7256,66.7048 48.7104,65.7196 49.9256,65.7196 C51.1404,65.7196 52.1256,66.7048 52.1256,67.9196" id="Fill-11" fill="#8CC63F"></path>
                        <path d="M72.5256,67.9196 C72.5256,69.1348 71.5404,70.1196 70.3256,70.1196 C69.1104,70.1196 68.1256,69.1348 68.1256,67.9196 C68.1256,66.7048 69.1104,65.7196 70.3256,65.7196 C71.5404,65.7196 72.5256,66.7048 72.5256,67.9196" id="Fill-12" fill="#8CC63F"></path>
                        <path d="M55.5256,78.29 C55.526,78.9788 55.6852,79.6488 55.9556,80.2696 C56.3632,81.2004 57.02,82.0316 57.8668,82.656 C58.7116,83.2772 59.7672,83.69 60.9256,83.69 C61.696,83.6904 62.426,83.5064 63.0732,83.2 C64.0452,82.7388 64.8388,82.0136 65.4068,81.1632 C65.972,80.312 66.3228,79.324 66.3256,78.29 C66.3256,77.6272 65.7884,77.09 65.1256,77.09 C64.4628,77.09 63.9256,77.6272 63.9256,78.29 C63.926,78.6016 63.85,78.9564 63.6956,79.3104 C63.4656,79.8424 63.0572,80.3608 62.5636,80.7212 C62.0676,81.0844 61.5068,81.29 60.9256,81.29 C60.5364,81.29 60.1612,81.1988 59.8036,81.03 C59.268,80.7792 58.7792,80.3416 58.4416,79.8324 C58.1008,79.3248 57.9228,78.7564 57.9256,78.29 C57.9256,77.6272 57.3884,77.09 56.7256,77.09 C56.0628,77.09 55.5256,77.6272 55.5256,78.29" id="Fill-13" fill="#8CC63F"></path>
                        <path d="M91.912,71.2192 C92.0048,71.2564 93.6372,71.9704 95.9508,71.9748 C97.4628,71.976 99.2832,71.6556 101.0648,70.5936 C102.8484,69.5352 104.5536,67.7456 105.8816,64.9724 C106.1684,64.3752 105.9168,63.658 105.3196,63.3712 C104.722,63.0844 104.0052,63.336 103.7184,63.9336 C102.5508,66.3576 101.18,67.7288 99.8372,68.5316 C98.4928,69.3312 97.136,69.5732 95.9508,69.5748 C95.0492,69.5748 94.2564,69.4296 93.7004,69.2856 C93.4224,69.2136 93.2036,69.142 93.0604,69.0912 C92.9888,69.0656 92.936,69.0456 92.904,69.0328 L92.872,69.0196 L92.86,69.0476 L92.8724,69.02 L92.872,69.0196 L92.86,69.0476 L92.8724,69.02 C92.2648,68.7548 91.5576,69.032 91.2924,69.6396 C91.0272,70.2468 91.3048,70.9544 91.912,71.2196 L91.912,71.2192" id="Fill-14" fill="#8CC63F"></path>
                        <path d="M27.094,69.3328 C27.058,69.3752 25.674,70.9704 24.2768,73.474 C23.5788,74.7264 22.8768,76.2068 22.3448,77.8432 C21.8132,79.4788 21.4504,81.2728 21.45,83.1452 C21.45,83.8472 21.5012,84.56 21.6148,85.2776 C21.718,85.932 22.3328,86.3788 22.9872,86.2756 C23.642,86.172 24.0888,85.5576 23.9852,84.9028 C23.8928,84.3172 23.85,83.7304 23.85,83.1452 C23.8496,81.5856 24.1556,80.0352 24.6272,78.5852 C25.3332,76.41 26.412,74.4688 27.3128,73.0856 C27.7632,72.3936 28.168,71.8408 28.4572,71.4652 C28.602,71.2772 28.7176,71.1336 28.7952,71.0392 C28.834,70.9916 28.8636,70.9564 28.8824,70.9344 L28.9024,70.9104 L28.9064,70.906 L28.7764,70.7936 L28.906,70.9064 L28.9064,70.906 L28.7764,70.7936 L28.906,70.9064 C29.3404,70.406 29.2872,69.648 28.7868,69.2136 C28.2864,68.7792 27.5284,68.8324 27.094,69.3328" id="Fill-15" fill="#8CC63F"></path>
                        <path d="M67.2412,101.5644 C67.2488,101.5904 67.9008,104.0208 68.9284,106.6036 C69.4448,107.8972 70.0504,109.2268 70.7512,110.346 C71.1032,110.906 71.4784,111.4156 71.908,111.8488 C72.338,112.2776 72.8284,112.65 73.4604,112.8408 C73.6364,112.8928 73.8012,112.9096 73.9484,112.91 C74.2448,112.908 74.4788,112.8476 74.6924,112.7772 C75.0628,112.65 75.3796,112.4752 75.6856,112.2872 C76.14,112.0048 76.556,111.686 76.8708,111.4324 C77.1844,111.1788 77.392,110.9916 77.4036,110.9812 C77.896,110.5372 77.9348,109.7784 77.4912,109.2864 C77.0472,108.7944 76.2884,108.7552 75.7964,109.1992 L75.9664,109.3876 L75.7964,109.1988 L75.7964,109.1992 L75.9664,109.3876 L75.7964,109.1988 C75.7884,109.2068 75.3576,109.5912 74.8652,109.9468 C74.6208,110.1244 74.3592,110.2944 74.1556,110.4 C74.0548,110.4528 73.9688,110.4888 73.9216,110.504 L73.8948,110.5124 L73.8872,110.5144 L73.9484,110.8008 L73.9484,110.51 C73.9028,110.51 73.8872,110.5144 73.8872,110.5144 L73.9484,110.8008 L73.9484,110.51 L73.9484,111.1868 L74.1396,110.5392 C74.0544,110.514 73.9892,110.51 73.9484,110.51 L73.9484,111.1868 L74.1396,110.5392 C74.0672,110.522 73.8604,110.4124 73.61,110.1568 C73.166,109.7168 72.6288,108.8912 72.1432,107.926 C71.4072,106.4756 70.7508,104.7124 70.2896,103.3264 C70.0584,102.6332 69.8744,102.0328 69.7492,101.6076 C69.6864,101.3952 69.6384,101.2268 69.606,101.1124 C69.59,101.0552 69.578,101.0112 69.57,100.9824 L69.5588,100.9416 C69.3868,100.3012 68.7284,99.922 68.0884,100.094 C67.4484,100.2664 67.0692,100.9244 67.2412,101.5644" id="Fill-16" fill="#8CC63F"></path>
                        <path d="M52.6412,100.9416 L52.6348,100.9644 C52.5656,101.22 51.9068,103.5908 50.9504,105.9432 C50.4744,107.1172 49.9196,108.288 49.362,109.1556 C49.0852,109.5888 48.8072,109.944 48.5668,110.18 C48.3268,110.4196 48.1308,110.5224 48.06,110.5392 L48.2512,111.1864 L48.2512,110.51 C48.2108,110.51 48.1456,110.514 48.0604,110.5392 L48.2512,111.1864 L48.2512,110.51 L48.2512,110.8252 L48.3128,110.5144 C48.3108,110.514 48.2924,110.51 48.2512,110.51 L48.2512,110.8252 L48.3128,110.5144 L48.2804,110.5048 C48.1964,110.4792 47.9976,110.384 47.7876,110.2528 C47.468,110.056 47.1084,109.7848 46.8412,109.5684 C46.7068,109.46 46.5944,109.3648 46.5172,109.2984 C46.4788,109.2652 46.4488,109.2392 46.4292,109.222 L46.408,109.2032 L46.4036,109.1992 C45.9116,108.7552 45.1528,108.7944 44.7088,109.2864 C44.2652,109.7784 44.304,110.5372 44.7964,110.9812 C44.8148,110.9976 45.2848,111.4224 45.898,111.87 C46.2068,112.094 46.5488,112.3244 46.9172,112.5188 C47.1024,112.616 47.2948,112.7048 47.5072,112.7772 C47.7208,112.8476 47.9552,112.908 48.2512,112.91 C48.3988,112.9096 48.5636,112.8928 48.7396,112.8412 C49.3716,112.65 49.862,112.2776 50.292,111.8488 C51.0388,111.0908 51.642,110.0988 52.1972,109.0112 C53.022,107.3824 53.702,105.538 54.1872,104.0856 C54.6708,102.6348 54.9544,101.5808 54.9588,101.5644 C55.1308,100.9244 54.7516,100.2664 54.1116,100.094 C53.4716,99.922 52.8132,100.3016 52.6412,100.9416" id="Fill-17" fill="#8CC63F"></path>
                        <path d="M112.3376,16.84 L8.4624,16.84 C7.4448,16.84 6.6124,16.0076 6.6124,14.99 C6.6124,13.9728 7.4448,13.14 8.4624,13.14 L112.3376,13.14 C113.3552,13.14 114.1876,13.9728 114.1876,14.99 C114.1876,16.0076 113.3552,16.84 112.3376,16.84" id="Fill-18" fill="#F2F2F2"></path>
                        <path d="M112.3376,16.84 L112.3376,15.64 L8.4624,15.64 C8.2844,15.64 8.1276,15.5696 8.0044,15.448 C7.8828,15.3248 7.8128,15.168 7.8124,14.99 C7.8128,14.8124 7.8828,14.6552 8.0044,14.532 C8.1276,14.4104 8.2844,14.3404 8.4624,14.34 L112.3376,14.34 C112.5156,14.3404 112.6724,14.4104 112.7956,14.532 C112.9172,14.6552 112.9872,14.8124 112.9876,14.99 C112.9872,15.168 112.9172,15.3248 112.7956,15.448 C112.6724,15.5696 112.5156,15.64 112.3376,15.64 L112.3376,18.04 C113.1772,18.0404 113.9452,17.6944 114.4924,17.1452 C115.0416,16.598 115.3876,15.8296 115.3876,14.99 C115.3876,14.1504 115.0416,13.3824 114.4924,12.8352 C113.9452,12.286 113.1772,11.94 112.3376,11.94 L8.4624,11.94 C7.6228,11.94 6.8548,12.286 6.3072,12.8352 C5.7584,13.3824 5.412,14.1504 5.4124,14.99 C5.412,15.8296 5.7584,16.598 6.3072,17.1452 C6.8548,17.6944 7.6228,18.0404 8.4624,18.04 L112.3376,18.04 L112.3376,16.84" id="Fill-19" fill="#E6E6E6"></path>
                        <path d="M106.8,18.8 L106.8,1.2" id="Fill-20" fill="#F2F2F2"></path>
                        <path d="M108,18.8 L108,1.2 C108,0.5372 107.4628,0 106.8,0 C106.1372,0 105.6,0.5372 105.6,1.2 L105.6,18.8 C105.6,19.4628 106.1372,20 106.8,20 C107.4628,20 108,19.4628 108,18.8" id="Fill-21" fill="#E6E6E6"></path>
                        <path d="M106.7,22.5836 L106.7,22.5836 C103.8832,22.5836 101.6,20.3004 101.6,17.4836 L101.6,12.4968 C101.6,9.68 103.8832,7.3968 106.7,7.3968 C109.5168,7.3968 111.8,9.68 111.8,12.4968 L111.8,17.4836 C111.8,20.3004 109.5168,22.5836 106.7,22.5836" id="Fill-22" fill="#E6E6E6"></path>
                        <path d="M106.7,22.5836 L106.7,21.3836 C105.6192,21.3828 104.652,20.9488 103.9424,20.2412 C103.2348,19.5316 102.8008,18.5644 102.8,17.4836 L102.8,12.4968 C102.8008,11.416 103.2348,10.4484 103.9424,9.7388 C104.652,9.0312 105.6192,8.5972 106.7,8.5968 C107.7808,8.5972 108.748,9.0312 109.4576,9.7388 C110.1652,10.4484 110.5992,11.416 110.6,12.4968 L110.6,17.4836 C110.5992,18.5644 110.1652,19.5316 109.4576,20.2412 C108.748,20.9488 107.7808,21.3828 106.7,21.3836 L106.7,23.7836 C108.436,23.784 110.0184,23.0764 111.1548,21.9384 C112.2928,20.802 113.0008,19.2196 113,17.4836 L113,12.4968 C113.0008,10.7608 112.2928,9.178 111.1548,8.042 C110.0184,6.9036 108.436,6.196 106.7,6.1968 C104.964,6.196 103.3816,6.9036 102.2452,8.042 C101.1068,9.178 100.3992,10.7608 100.4,12.4968 L100.4,17.4836 C100.3992,19.2196 101.1068,20.802 102.2452,21.9384 C103.3816,23.0764 104.964,23.784 106.7,23.7836 L106.7,22.5836" id="Fill-23" fill="#CCCCCC"></path>
                        <path d="M14,18.8 L14,1.2" id="Fill-24" fill="#F2F2F2"></path>
                        <path d="M15.2,18.8 L15.2,1.2 C15.2,0.5372 14.6628,0 14,0 C13.3372,0 12.8,0.5372 12.8,1.2 L12.8,18.8 C12.8,19.4628 13.3372,20 14,20 C14.6628,20 15.2,19.4628 15.2,18.8" id="Fill-25" fill="#E6E6E6"></path>
                        <path d="M13.9,22.5836 L13.9,22.5836 C11.0832,22.5836 8.8,20.3004 8.8,17.4836 L8.8,12.4968 C8.8,9.68 11.0832,7.3968 13.9,7.3968 C16.7168,7.3968 19,9.68 19,12.4968 L19,17.4836 C19,20.3004 16.7168,22.5836 13.9,22.5836" id="Fill-26" fill="#E6E6E6"></path>
                        <path d="M13.9,22.5836 L13.9,21.3836 C12.8192,21.3828 11.852,20.9488 11.1424,20.2412 C10.4348,19.5316 10.0004,18.5644 10,17.4836 L10,12.4968 C10.0004,11.416 10.4348,10.4484 11.1424,9.7388 C11.852,9.0312 12.8192,8.5972 13.9,8.5968 C14.9808,8.5972 15.948,9.0312 16.6576,9.7388 C17.3652,10.4484 17.7992,11.416 17.8,12.4968 L17.8,17.4836 C17.7992,18.5644 17.3652,19.5316 16.6576,20.2412 C15.948,20.9488 14.9808,21.3828 13.9,21.3836 L13.9,23.7836 C15.636,23.784 17.2184,23.0764 18.3548,21.9384 C19.4928,20.802 20.2004,19.2196 20.2,17.4836 L20.2,12.4968 C20.2004,10.7608 19.4928,9.178 18.3548,8.042 C17.2184,6.9036 15.636,6.196 13.9,6.1968 C12.164,6.196 10.5816,6.9036 9.4452,8.042 C8.3068,9.178 7.5992,10.7608 7.6,12.4968 L7.6,17.4836 C7.5992,19.2196 8.3068,20.802 9.4452,21.9384 C10.5816,23.0764 12.164,23.784 13.9,23.7836 L13.9,22.5836" id="Fill-27" fill="#CCCCCC"></path>
                        <path d="M63.55,4.3608 L63.55,11.84 C63.55,13.58 62.1396,14.99 60.4,14.99 C58.6604,14.99 57.25,13.58 57.25,11.84 L57.25,4.3608 C57.25,2.6212 58.6604,1.2108 60.4,1.2108 C62.1396,1.2108 63.55,2.6212 63.55,4.3608" id="Fill-28" fill="#F2F2F2"></path>
                        <path d="M63.55,4.3608 L62.35,4.3608 L62.35,11.84 C62.3492,12.3824 62.1336,12.8624 61.7788,13.2188 C61.422,13.5736 60.9424,13.7896 60.4,13.79 C59.8576,13.7896 59.378,13.5736 59.0212,13.2188 C58.6664,12.8624 58.4504,12.3824 58.45,11.84 L58.45,4.3608 C58.4504,3.8184 58.6664,3.3384 59.0212,2.982 C59.378,2.6272 59.8576,2.4112 60.4,2.4108 C60.9424,2.4112 61.422,2.6272 61.7788,2.982 C62.1336,3.3384 62.3492,3.8184 62.35,4.3608 L64.75,4.3608 C64.7504,3.1632 64.2612,2.068 63.476,1.2848 C62.6924,0.4996 61.5976,0.01 60.4,0.0108 C59.2024,0.01 58.1076,0.4996 57.324,1.2848 C56.5388,2.068 56.0492,3.1632 56.05,4.3608 L56.05,11.84 C56.0492,13.0376 56.5388,14.1328 57.324,14.916 C58.1076,15.7012 59.2024,16.1908 60.4,16.19 C61.5976,16.1908 62.6924,15.7012 63.476,14.916 C64.2612,14.1328 64.7504,13.0376 64.75,11.84 L64.75,4.3608 L63.55,4.3608" id="Fill-29" fill="#E6E6E6"></path>
                        <path d="M65.332,22.5836 L55.468,22.5836 C51.2916,22.5836 47.8744,19.1664 47.8744,14.99 C47.8744,10.8136 51.2916,7.3968 55.468,7.3968 L65.332,7.3968 C69.5084,7.3968 72.9256,10.8136 72.9256,14.99 C72.9256,19.1664 69.5084,22.5836 65.332,22.5836" id="Fill-30" fill="#E6E6E6"></path>
                        <path d="M65.332,22.5836 L65.332,21.3836 L55.468,21.3836 C53.7104,21.3832 52.118,20.6672 50.9536,19.5044 C49.7908,18.34 49.0748,16.7476 49.0744,14.99 C49.0748,13.2328 49.7908,11.64 50.9536,10.4756 C52.118,9.3132 53.7104,8.5968 55.468,8.5968 L65.332,8.5968 C67.0892,8.5968 68.682,9.3132 69.8464,10.4756 C71.0088,11.64 71.7252,13.2328 71.7256,14.99 C71.7252,16.7476 71.0088,18.34 69.8464,19.5044 C68.682,20.6672 67.0892,21.3832 65.332,21.3836 L65.332,23.7836 C67.7512,23.784 69.9552,22.7916 71.5436,21.2016 C73.1336,19.6132 74.126,17.4092 74.1256,14.99 C74.126,12.5712 73.1336,10.3672 71.5436,8.7788 C69.9552,7.1888 67.7512,6.1964 65.332,6.1968 L55.468,6.1968 C53.0488,6.1964 50.8448,7.1888 49.2564,8.7788 C47.6664,10.3672 46.674,12.5712 46.6744,14.99 C46.674,17.4092 47.6664,19.6132 49.2564,21.2016 C50.8448,22.7916 53.0488,23.784 55.468,23.7836 L65.332,23.7836 L65.332,22.5836" id="Fill-31" fill="#CCCCCC"></path>
                        <path d="M1.2,3.2 L25.6,3.2" id="Fill-32" fill="#E6E6E6"></path>
                        <path d="M1.2,4.4 L25.6,4.4 C26.2628,4.4 26.8,3.8628 26.8,3.2 C26.8,2.5372 26.2628,2 25.6,2 L1.2,2 C0.5372,2 0,2.5372 0,3.2 C0,3.8628 0.5372,4.4 1.2,4.4" id="Fill-33" fill="#CCCCCC"></path>
                        <path d="M94.4,3.2 L118.8,3.2" id="Fill-34" fill="#E6E6E6"></path>
                        <path d="M94.4,4.4 L118.8,4.4 C119.4628,4.4 120,3.8628 120,3.2 C120,2.5372 119.4628,2 118.8,2 L94.4,2 C93.7372,2 93.2,2.5372 93.2,3.2 C93.2,3.8628 93.7372,4.4 94.4,4.4" id="Fill-35" fill="#CCCCCC"></path>
                    </g>
                </g>
            </g>
        </g>
    </g>
</svg>