<?xml version="1.0" encoding="UTF-8" standalone="no"?>
<svg width="3px" height="3px" viewBox="0 0 3 3" version="1.1" xmlns="http://www.w3.org/2000/svg" xmlns:xlink="http://www.w3.org/1999/xlink">
    <!-- Generator: Sketch 47.1 (45422) - http://www.bohemiancoding.com/sketch -->
    <title>Shape</title>
    <desc>Created with Sketch.</desc>
    <defs>
        <linearGradient x1="18.3072039%" y1="50%" x2="88.2542666%" y2="50%" id="linearGradient-1">
            <stop stop-color="#97C5FC" offset="0%"></stop>
            <stop stop-color="#DFC3FC" offset="100%"></stop>
        </linearGradient>
    </defs>
    <g id="Page-1" stroke="none" stroke-width="1" fill="none" fill-rule="evenodd">
        <g id="noun_1439259" fill-rule="nonzero" fill="url(#linearGradient-1)">
            <path d="M2.138,1.58 L2.182,1.85 C2.222,1.862 2.258,1.884 2.287,1.913 L2.287,1.913 C2.333,1.959 2.362,2.023 2.362,2.092 C2.362,2.162 2.333,2.226 2.287,2.272 C2.241,2.318 2.178,2.346 2.108,2.346 L1.555,2.346 C1.539,2.418 1.502,2.482 1.452,2.532 C1.383,2.602 1.287,2.645 1.181,2.645 C1.075,2.645 0.979,2.602 0.91,2.532 C0.859,2.482 0.823,2.418 0.807,2.346 L0.254,2.346 C0.184,2.346 0.12,2.318 0.074,2.272 C0.029,2.226 1.38777878e-17,2.162 1.38777878e-17,2.092 C1.38777878e-17,2.023 0.029,1.959 0.074,1.913 C0.104,1.884 0.14,1.862 0.18,1.85 L0.3,1.112 C0.34,0.868 0.445,0.644 0.604,0.485 C0.662,0.426 0.728,0.376 0.8,0.338 C0.811,0.25 0.85,0.172 0.91,0.113 C0.979,0.043 1.075,6.9388939e-17 1.181,6.9388939e-17 C1.287,6.9388939e-17 1.383,0.043 1.452,0.113 C1.511,0.172 1.551,0.25 1.562,0.338 C1.627,0.373 1.687,0.417 1.741,0.469 C1.79,0.456 1.841,0.449 1.894,0.449 C2.057,0.449 2.205,0.515 2.312,0.622 C2.419,0.73 2.486,0.878 2.486,1.041 C2.486,1.204 2.419,1.352 2.312,1.459 C2.262,1.51 2.203,1.551 2.138,1.58 L2.138,1.58 Z M1.571,0.545 C1.529,0.512 1.483,0.485 1.434,0.464 L1.435,0.464 C1.359,0.431 1.274,0.413 1.181,0.413 C0.996,0.413 0.842,0.486 0.724,0.604 C0.589,0.738 0.501,0.93 0.467,1.139 L0.338,1.931 C0.334,1.974 0.298,2.008 0.254,2.008 C0.231,2.008 0.209,2.017 0.194,2.033 C0.179,2.048 0.169,2.069 0.169,2.092 C0.169,2.116 0.179,2.137 0.194,2.152 C0.209,2.167 0.231,2.177 0.254,2.177 L0.797,2.177 L1.564,2.177 L2.108,2.177 C2.131,2.177 2.152,2.167 2.168,2.152 C2.183,2.137 2.193,2.116 2.193,2.092 C2.193,2.069 2.183,2.048 2.168,2.033 L2.168,2.032 C2.153,2.017 2.131,2.008 2.108,2.008 L2.108,2.008 C2.067,2.008 2.032,1.978 2.025,1.937 L1.974,1.627 C1.948,1.631 1.921,1.633 1.894,1.633 C1.73,1.633 1.582,1.567 1.475,1.459 C1.368,1.352 1.302,1.204 1.302,1.041 C1.302,0.878 1.368,0.73 1.475,0.622 C1.504,0.593 1.536,0.567 1.571,0.545 L1.571,0.545 Z M2.193,0.742 C2.116,0.666 2.01,0.618 1.894,0.618 C1.777,0.618 1.671,0.666 1.595,0.742 C1.518,0.818 1.471,0.924 1.471,1.041 C1.471,1.158 1.518,1.263 1.595,1.34 C1.671,1.416 1.777,1.464 1.894,1.464 C2.01,1.464 2.116,1.416 2.193,1.34 C2.269,1.263 2.316,1.158 2.316,1.041 C2.316,0.924 2.269,0.818 2.193,0.742 L2.193,0.742 Z M0.823,1.097 C0.816,1.143 0.772,1.174 0.726,1.167 C0.68,1.159 0.649,1.116 0.657,1.07 C0.678,0.939 0.734,0.819 0.82,0.733 C0.902,0.651 1.01,0.6 1.139,0.6 C1.185,0.6 1.223,0.638 1.223,0.685 C1.223,0.731 1.185,0.769 1.139,0.769 C1.058,0.769 0.991,0.801 0.94,0.852 C0.879,0.913 0.839,1.001 0.823,1.097 Z M1.004,0.262 C1.06,0.25 1.119,0.244 1.181,0.244 C1.243,0.244 1.302,0.25 1.358,0.263 C1.351,0.252 1.342,0.241 1.333,0.232 C1.294,0.193 1.24,0.169 1.181,0.169 C1.121,0.169 1.068,0.193 1.029,0.232 C1.02,0.241 1.011,0.251 1.004,0.262 L1.004,0.262 Z M1.378,2.346 L0.984,2.346 C0.994,2.371 1.01,2.394 1.029,2.414 C1.068,2.452 1.121,2.476 1.181,2.476 C1.24,2.476 1.294,2.452 1.333,2.414 C1.352,2.394 1.367,2.371 1.378,2.346 L1.378,2.346 Z" id="Shape"></path>
        </g>
    </g>
</svg>