<svg fill="#A2A2A2" xmlns="http://www.w3.org/2000/svg" xmlns:xlink="http://www.w3.org/1999/xlink" version="1.1" x="0px" y="0px" viewBox="0 0 100 100" style="enable-background:new 0 0 100 100;" xml:space="preserve"><g><path d="M37.5,59c-0.8,1.7-1.7,5-1.7,5S25.5,67.5,19,70.6c-2,0.9-3.5,2.4-4.6,4.2c8.1,10.8,21,17.7,35.6,17.7s27.4-7,35.6-17.7   c-1.1-1.8-2.6-3.3-4.6-4.2c-6.5-3-16.8-6.5-16.8-6.5s-0.8-3.4-1.7-5c-0.8-1.7-1.7-0.8-1.7-0.8l0.2-5.9c3.4-2.5,3.4-8.4,3.4-8.4   s0.8-0.8,1.7-5c0.8-4.2-0.8-4.2-0.8-4.2S68,25.4,66,21.4c-1.5-3.1-3.6-5.6-7-7c0,0-7.7-3.5-11-3c-7,1-7,6-7,6c-3.4,1.4-4.7-0.2-6,3   c-3.4,8.4-0.1,14.1-0.1,14.1s-1.7,0-0.8,4.2c0.8,4.2,1.7,5,1.7,5s0,5.9,3.4,8.4l0.2,5.9C39.2,58.1,38.4,57.3,37.5,59z"></path></g></svg>