<svg fill="#A2A2A2" xmlns="http://www.w3.org/2000/svg" xmlns:xlink="http://www.w3.org/1999/xlink" version="1.1" x="0px" y="0px" viewBox="0 0 168.292 195" enable-background="new 0 0 168.292 195" xml:space="preserve"><polygon points="98.561,156.685 98.561,129.244 81.257,129.244 81.257,156.685 62.143,156.685 90.236,189.838 118.328,156.685 "></polygon><path d="M145.341,60.118V45.374c0-0.773-0.324-1.558-0.866-2.109L108.553,6.886c-0.468-0.585-1.415-0.891-2.134-0.891H37.722  c-1.657,0-3,1.343-3,3v51.123h-9.425v59.57h9.425v25.232c0,1.658,1.343,3,3,3h38.535v-6H40.722v-22.232h98.619v22.232h-35.78v6  h38.78c1.657,0,3-1.342,3-3v-25.232h9.108v-59.57H145.341z M109.419,16.298l25.738,26.076h-25.738V16.298z M68.644,98.588  c1.84,0,3.879-0.4,5.08-0.88l0.919,4.759c-1.12,0.56-3.639,1.16-6.918,1.16c-9.319,0-14.118-5.799-14.118-13.478  c0-9.199,6.559-14.318,14.717-14.318c3.16,0,5.559,0.64,6.639,1.2l-1.24,4.839c-1.24-0.52-2.96-1-5.119-1  c-4.839,0-8.599,2.92-8.599,8.919C60.006,95.188,63.205,98.588,68.644,98.588z M87.245,103.627c-3.079,0-6.119-0.801-7.639-1.641  l1.24-5.039c1.64,0.84,4.16,1.679,6.759,1.679c2.8,0,4.279-1.159,4.279-2.919c0-1.68-1.28-2.64-4.52-3.799  c-4.479-1.56-7.399-4.04-7.399-7.959c0-4.599,3.839-8.119,10.199-8.119c3.039,0,5.279,0.64,6.879,1.36l-1.359,4.919  c-1.08-0.52-3-1.28-5.64-1.28s-3.919,1.2-3.919,2.6c0,1.72,1.52,2.48,4.999,3.8c4.759,1.759,6.999,4.239,6.999,8.039  C98.124,99.787,94.644,103.627,87.245,103.627z M117.723,103.227h-7.118l-8.639-26.956h6.679l3.279,11.398  c0.92,3.2,1.76,6.279,2.399,9.639h0.12c0.68-3.24,1.52-6.439,2.439-9.519l3.439-11.518h6.479L117.723,103.227z M139.341,60.118  H40.722V11.995h62.697v33.378c0,1.657,1.343,3,3,3h32.922V60.118z"></path></svg>